<?xml version="1.0" encoding="UTF-8"?>
<svg id="Layer_1" data-name="Layer 1" xmlns="http://www.w3.org/2000/svg" viewBox="0 0 1080 720">
  <defs>
    <style>
      .cls-1 {
        fill: #0071bc;
      }

      .cls-2 {
        fill: #fff;
      }
    </style>
  </defs>
  <g>
    <path class="cls-2" d="m478.81,343.99c0-11.24,0-13.31-.15-15.68-.15-2.51-.74-3.7-3.18-4.22-.59-.15-1.85-.22-2.89-.22-.81,0-1.26-.15-1.26-.67s.52-.66,1.63-.66c3.92,0,8.58.22,10.65.22,2.29,0,6.95-.22,11.39-.22,9.25,0,21.6,0,29.66,8.43,3.7,3.85,7.18,9.99,7.18,18.79,0,9.32-3.92,16.42-8.06,20.64-3.4,3.48-11.1,8.73-24.78,8.73-2.66,0-5.7-.22-8.51-.44-2.81-.22-5.4-.44-7.25-.44-.81,0-2.44,0-4.22.07-1.7,0-3.62.15-5.1.15-.96,0-1.48-.22-1.48-.74,0-.37.3-.59,1.18-.59,1.11,0,2-.15,2.66-.3,1.48-.3,1.85-1.92,2.15-4.07.37-3.11.37-8.95.37-15.76v-13.02Zm9.25,8.14c0,7.84.07,13.54.15,14.94.07,1.85.22,4.81.81,5.62.96,1.41,3.85,2.96,9.69,2.96,7.55,0,12.58-1.48,17.01-5.33,4.73-4.07,6.21-10.8,6.21-18.42,0-9.39-3.92-15.46-7.1-18.49-6.81-6.51-15.24-7.4-21.01-7.4-1.48,0-4.22.22-4.81.52-.67.3-.89.67-.89,1.48-.07,2.51-.07,8.95-.07,14.79v9.32Z"/>
    <path class="cls-2" d="m547.32,343.99c0-11.24,0-13.31-.15-15.68-.15-2.51-.89-3.77-2.51-4.14-.81-.22-1.78-.3-2.66-.3-.74,0-1.18-.15-1.18-.74,0-.44.59-.59,1.78-.59,2.81,0,7.47.22,9.62.22,1.85,0,6.21-.22,9.02-.22.96,0,1.55.15,1.55.59,0,.59-.44.74-1.18.74s-1.33.07-2.22.22c-2,.37-2.59,1.63-2.74,4.22-.15,2.37-.15,4.44-.15,15.68v13.02c0,7.18,0,13.02.3,16.2.22,2,.74,3.33,2.96,3.62,1.04.15,2.66.3,3.77.3.81,0,1.18.22,1.18.59,0,.52-.59.74-1.41.74-4.88,0-9.54-.22-11.54-.22-1.7,0-6.36.22-9.32.22-.96,0-1.48-.22-1.48-.74,0-.37.3-.59,1.18-.59,1.11,0,2-.15,2.66-.3,1.48-.3,1.92-1.55,2.15-3.7.37-3.11.37-8.95.37-16.13v-13.02Z"/>
    <path class="cls-2" d="m581.13,371.43c-7.25-6.36-9.17-14.65-9.17-21.82,0-5.03,1.55-13.76,8.65-20.27,5.33-4.88,12.35-7.84,23.38-7.84,4.59,0,7.32.3,10.73.74,2.81.37,5.18,1.04,7.4,1.26.81.07,1.11.44,1.11.89,0,.59-.22,1.48-.37,4.07-.15,2.44-.07,6.51-.22,7.99-.07,1.11-.22,1.7-.89,1.7-.59,0-.74-.59-.74-1.63-.07-2.29-1.04-4.88-2.89-6.81-2.44-2.59-8.21-4.59-15.02-4.59-6.43,0-10.65,1.63-13.91,4.59-5.4,4.96-6.81,11.98-6.81,19.16,0,17.61,13.39,26.33,23.3,26.33,6.58,0,10.58-.74,13.54-4.14,1.26-1.41,2.22-3.55,2.51-4.88.22-1.18.37-1.48.96-1.48.52,0,.67.52.67,1.11,0,.89-.89,7.32-1.63,9.84-.37,1.26-.67,1.63-1.92,2.15-2.96,1.18-8.58,1.7-13.32,1.7-10.13,0-18.64-2.22-25.37-8.06Z"/>
    <path class="cls-2" d="m648.22,347.25h.37c2.52-2.74,13.32-13.76,15.46-16.27,2.07-2.44,3.7-4.29,3.7-5.55,0-.81-.3-1.33-1.04-1.48-.67-.15-.96-.3-.96-.74,0-.52.37-.66,1.18-.66,1.55,0,5.62.22,7.62.22,2.29,0,6.36-.22,8.66-.22.74,0,1.26.15,1.26.66s-.37.67-1.11.67c-1.04,0-2.89.3-4.29.81-2.29.89-4.81,2.44-7.99,5.55-2.29,2.22-13.46,13.32-15.98,15.98,2.66,3.48,17.16,19.08,20.05,21.82,3.26,3.11,6.58,6.44,10.58,7.99,2.22.89,3.7,1.11,4.59,1.11.52,0,.96.15.96.59,0,.52-.37.74-1.78.74h-6.43c-2.22,0-3.55,0-5.1-.15-3.99-.37-5.99-2-9.17-4.81-3.26-2.88-17.83-19.97-19.38-22.12l-.81-1.11h-.37v6.73c0,6.81,0,12.65.22,15.83.15,2.07.81,3.7,2.66,4,1.04.15,2.66.3,3.62.3.59,0,.96.22.96.59,0,.52-.59.74-1.41.74-4.14,0-8.8-.22-10.65-.22-1.7,0-6.36.22-9.32.22-.96,0-1.48-.22-1.48-.74,0-.37.3-.59,1.18-.59,1.11,0,2-.15,2.66-.3,1.48-.3,1.85-1.92,2.15-4.07.37-3.11.37-8.95.37-15.76v-13.02c0-11.24,0-13.31-.15-15.68-.15-2.51-.74-3.7-3.18-4.22-.59-.15-1.85-.22-2.89-.22-.81,0-1.26-.15-1.26-.67s.52-.66,1.63-.66c3.92,0,8.58.22,10.36.22s6.44-.22,8.95-.22c1.04,0,1.55.15,1.55.66s-.44.67-1.04.67c-.74,0-1.18.07-2.07.22-2,.37-2.59,1.63-2.74,4.22-.15,2.37-.15,4.44-.15,15.68v3.26Z"/>
    <path class="cls-2" d="m692.31,377.57c-1.18-.52-1.41-.89-1.41-2.51,0-4.07.3-8.51.37-9.69.07-1.11.3-1.92.89-1.92.67,0,.74.67.74,1.26,0,.96.3,2.51.67,3.77,1.63,5.47,5.99,7.47,10.58,7.47,6.66,0,9.91-4.51,9.91-8.43,0-3.62-1.11-7.03-7.25-11.84l-3.4-2.66c-8.14-6.36-10.95-11.54-10.95-17.53,0-8.14,6.81-13.98,17.09-13.98,4.81,0,7.91.74,9.84,1.26.67.15,1.04.37,1.04.89,0,.96-.3,3.11-.3,8.88,0,1.63-.22,2.22-.81,2.22-.52,0-.74-.44-.74-1.33,0-.66-.37-2.96-1.92-4.88-1.11-1.41-3.26-3.62-8.06-3.62-5.47,0-8.8,3.18-8.8,7.62,0,3.4,1.7,5.99,7.84,10.65l2.07,1.55c8.95,6.73,12.13,11.84,12.13,18.86,0,4.29-1.63,9.39-6.95,12.87-3.7,2.37-7.84,3.03-11.76,3.03-4.29,0-7.62-.52-10.8-1.92Z"/>
    <path class="cls-2" d="m731.37,350.5c0-12.65,8.36-29,30.55-29,18.42,0,29.89,10.73,29.89,27.66s-11.84,30.33-30.62,30.33c-21.23,0-29.81-15.9-29.81-29Zm50.08,1.41c0-16.57-9.54-26.85-21.67-26.85-8.51,0-18.2,4.73-18.2,23.15,0,15.39,8.51,27.59,22.71,27.59,5.18,0,17.16-2.51,17.16-23.89Z"/>
    <path class="cls-2" d="m811.42,368.4c.15,5.77,1.11,7.69,2.59,8.21,1.26.44,2.66.52,3.85.52.81,0,1.26.15,1.26.59,0,.59-.67.74-1.7.74-4.81,0-7.77-.22-9.17-.22-.67,0-4.14.22-7.99.22-.96,0-1.63-.07-1.63-.74,0-.44.44-.59,1.18-.59.96,0,2.29-.07,3.33-.37,1.92-.59,2.22-2.74,2.29-9.17l.67-43.79c0-1.48.22-2.51.96-2.51.81,0,1.48.96,2.74,2.29.89.96,12.13,13.02,22.93,23.74,5.03,5.03,15.02,15.68,16.27,16.87h.37l-.74-33.21c-.07-4.51-.74-5.92-2.51-6.66-1.11-.44-2.89-.44-3.92-.44-.89,0-1.18-.22-1.18-.67,0-.59.81-.66,1.92-.66,3.85,0,7.4.22,8.95.22.81,0,3.62-.22,7.25-.22.96,0,1.7.07,1.7.66,0,.44-.44.67-1.33.67-.74,0-1.33,0-2.22.22-2.07.59-2.66,2.15-2.74,6.29l-.81,46.68c0,1.63-.3,2.29-.96,2.29-.81,0-1.7-.81-2.51-1.63-4.66-4.44-14.13-14.13-21.82-21.75-8.06-7.99-16.27-17.23-17.61-18.64h-.22l.81,31.07Z"/>
    <path class="cls-2" d="m483.03,422.25c-3.11-4.14-3.7-7.18-3.77-10.5-.07-5.84,5.1-13.61,17.98-13.61,3.62,0,6.95.74,8.95,1.55,1.26.44,1.26,1.04,1.26,1.92,0,2.44-.59,8.36-.81,9.47-.15,1.11-.44,1.26-.89,1.26s-.52-.3-.52-1.41c0-1.92-.52-4.29-2.14-6.21-1.48-1.78-4.07-3.33-8.21-3.33-3.11,0-7.92,2.15-7.92,8.43,0,6.95,6.36,12.87,12.28,19.45,2.51,2.89,11.61,11.1,13.02,12.35,1.48-2.07,3.55-6.88,3.55-11.39,0-1.11-.3-2.44-1.41-3.4-.96-.89-2.52-1.11-3.63-1.11-.44,0-.89-.15-.89-.59,0-.59.59-.74,1.18-.74,1.78,0,4.73.07,8.88.52,1.41.15,2.51.59,2.51,1.48,0,5.7-3.03,12.58-7.25,17.53,4.96,4.07,8.28,6.07,10.28,7.25,2.37,1.41,6.44,2.59,7.92,2.59.67,0,1.04.07,1.04.67,0,.44-.59.66-2.22.66h-5.7c-8.43,0-11.1-.81-17.46-5.7-2.44,2.22-7.4,6.73-17.53,6.73-15.83,0-20.56-9.91-20.56-16.35,0-8.65,7.62-15.39,12.06-17.53Zm23.15,24.78c-4.29-3.7-11.39-10.65-13.32-12.72-1.92-2.07-6.66-7.4-7.91-9.25-2.51,1.85-5.1,5.33-5.1,11.24,0,9.25,6.51,15.16,14.2,15.16,5.7,0,10.58-2.96,12.13-4.44Z"/>
    <path class="cls-2" d="m600.36,422.7c.22,0,.44-.15.44-.52v-1.55c0-11.24,0-13.31-.15-15.68-.15-2.51-.74-3.7-3.18-4.22-.59-.15-1.85-.22-2.89-.22-.81,0-1.26-.15-1.26-.67s.52-.66,1.55-.66c3.99,0,8.66.22,10.65.22,1.78,0,6.44-.22,9.32-.22,1.04,0,1.55.15,1.55.66s-.44.67-1.33.67c-.59,0-1.26.07-2.14.22-2,.37-2.59,1.63-2.74,4.22-.15,2.37-.15,4.44-.15,15.68v13.02c0,6.81,0,12.65.37,15.83.22,2.07.67,3.7,2.89,4,1.04.15,2.66.3,3.77.3.81,0,1.18.22,1.18.59,0,.52-.59.74-1.48.74-4.81,0-9.47-.22-11.54-.22-1.7,0-6.36.22-9.25.22-1.04,0-1.55-.22-1.55-.74,0-.37.3-.59,1.18-.59,1.11,0,2-.15,2.66-.3,1.48-.3,1.85-1.92,2.15-4.07.37-3.11.37-8.95.37-15.76v-6.51c0-.3-.22-.44-.44-.44h-28.26c-.22,0-.44.07-.44.44v6.51c0,6.81,0,12.65.37,15.83.22,2.07.67,3.7,2.89,4,1.04.15,2.66.3,3.77.3.81,0,1.18.22,1.18.59,0,.52-.59.74-1.48.74-4.81,0-9.47-.22-11.54-.22-1.7,0-6.36.22-9.32.22-.96,0-1.48-.22-1.48-.74,0-.37.3-.59,1.18-.59,1.11,0,2-.15,2.66-.3,1.48-.3,1.85-1.92,2.15-4.07.37-3.11.37-8.95.37-15.76v-13.02c0-11.24,0-13.31-.15-15.68-.15-2.51-.74-3.7-3.18-4.22-.59-.15-1.85-.22-2.89-.22-.81,0-1.26-.15-1.26-.67s.52-.66,1.55-.66c3.99,0,8.65.22,10.65.22,1.77,0,6.43-.22,9.32-.22,1.04,0,1.55.15,1.55.66s-.44.67-1.33.67c-.59,0-1.26.07-2.15.22-2,.37-2.59,1.63-2.74,4.22-.15,2.37-.15,4.44-.15,15.68v1.55c0,.37.22.52.44.52h28.26Z"/>
    <path class="cls-2" d="m634.31,420.63c0-11.24,0-13.31-.15-15.68-.15-2.51-.74-3.7-3.18-4.22-.59-.15-1.85-.22-2.89-.22-.81,0-1.26-.15-1.26-.67s.52-.66,1.63-.66c2,0,4.14.07,5.99.07,1.92.07,3.62.15,4.66.15,2.37,0,17.09,0,18.49-.07,1.41-.15,2.59-.3,3.18-.44.37-.07.81-.3,1.18-.3s.44.3.44.67c0,.52-.37,1.41-.59,4.81-.07.74-.22,3.99-.37,4.88-.07.37-.22.81-.74.81s-.67-.37-.67-1.04c0-.52-.07-1.78-.44-2.66-.52-1.33-1.26-2.22-4.96-2.66-1.26-.15-9.02-.3-10.5-.3-.37,0-.52.22-.52.74v18.72c0,.52.07.81.52.81,1.63,0,10.13,0,11.84-.15,1.78-.15,2.89-.37,3.55-1.11.52-.59.81-.96,1.18-.96.3,0,.52.15.52.59s-.3,1.63-.59,5.4c-.07,1.48-.3,4.44-.3,4.96,0,.59,0,1.41-.67,1.41-.52,0-.67-.3-.67-.67-.07-.74-.07-1.7-.3-2.66-.37-1.48-1.41-2.59-4.14-2.88-1.41-.15-8.73-.22-10.5-.22-.37,0-.44.3-.44.74v5.84c0,2.51-.07,9.32,0,11.47.15,5.1,1.33,6.21,8.88,6.21,1.92,0,5.03,0,6.95-.89,1.92-.89,2.81-2.44,3.33-5.47.15-.81.3-1.11.81-1.11.59,0,.59.59.59,1.33,0,1.7-.59,6.73-.96,8.21-.52,1.92-1.18,1.92-3.99,1.92-5.55,0-9.62-.15-12.8-.22-3.18-.15-5.47-.22-7.69-.22-.81,0-2.44,0-4.22.07-1.7,0-3.62.15-5.1.15-.96,0-1.48-.22-1.48-.74,0-.37.3-.59,1.18-.59,1.11,0,2-.15,2.66-.3,1.48-.3,1.85-1.92,2.15-4.07.37-3.11.37-8.95.37-15.76v-13.02Z"/>
    <path class="cls-2" d="m685.21,445.04c.15,5.77,1.11,7.69,2.59,8.21,1.26.44,2.66.52,3.85.52.81,0,1.26.15,1.26.59,0,.59-.67.74-1.7.74-4.81,0-7.77-.22-9.17-.22-.67,0-4.14.22-7.99.22-.96,0-1.63-.07-1.63-.74,0-.44.44-.59,1.18-.59.96,0,2.29-.07,3.33-.37,1.92-.59,2.22-2.74,2.29-9.17l.67-43.79c0-1.48.22-2.51.96-2.51.81,0,1.48.96,2.74,2.29.89.96,12.13,13.02,22.93,23.74,5.03,5.03,15.02,15.68,16.27,16.87h.37l-.74-33.21c-.07-4.51-.74-5.92-2.51-6.66-1.11-.44-2.89-.44-3.92-.44-.89,0-1.18-.22-1.18-.67,0-.59.81-.66,1.92-.66,3.85,0,7.4.22,8.95.22.81,0,3.62-.22,7.25-.22.96,0,1.7.07,1.7.66,0,.44-.44.67-1.33.67-.74,0-1.33,0-2.22.22-2.07.59-2.66,2.15-2.74,6.29l-.81,46.68c0,1.63-.3,2.29-.96,2.29-.81,0-1.7-.81-2.51-1.63-4.66-4.44-14.13-14.13-21.82-21.75-8.06-7.99-16.27-17.23-17.6-18.64h-.22l.81,31.07Z"/>
    <path class="cls-2" d="m751.13,420.63c0-11.24,0-13.31-.15-15.68-.15-2.51-.74-3.7-3.18-4.22-.59-.15-1.85-.22-2.89-.22-.81,0-1.26-.15-1.26-.67s.52-.66,1.63-.66c3.92,0,8.58.22,10.13.22,2.51,0,8.14-.22,10.43-.22,4.66,0,9.62.44,13.61,3.18,2.07,1.41,5.03,5.18,5.03,10.13,0,5.47-2.29,10.5-9.76,16.57,6.58,8.28,11.69,14.87,16.05,19.46,4.14,4.29,7.18,4.81,8.28,5.03.81.15,1.48.22,2.07.22s.89.22.89.59c0,.59-.52.74-1.41.74h-7.03c-4.14,0-5.99-.37-7.91-1.41-3.18-1.7-5.99-5.18-10.13-10.87-2.96-4.07-6.36-9.1-7.32-10.21-.37-.44-.81-.52-1.33-.52l-6.44-.15c-.37,0-.59.15-.59.59v1.04c0,6.88,0,12.72.37,15.83.22,2.15.67,3.77,2.89,4.07,1.11.15,2.74.3,3.62.3.59,0,.89.22.89.59,0,.52-.52.74-1.48.74-4.29,0-9.76-.22-10.87-.22-1.41,0-6.07.22-9.02.22-.96,0-1.48-.22-1.48-.74,0-.37.3-.59,1.18-.59,1.11,0,2-.15,2.66-.3,1.48-.3,1.85-1.92,2.15-4.07.37-3.11.37-8.95.37-15.76v-13.02Zm8.73,5.84c0,.81.15,1.11.67,1.33,1.55.52,3.77.74,5.62.74,2.96,0,3.92-.3,5.25-1.26,2.22-1.63,4.36-5.03,4.36-11.1,0-10.5-6.95-13.54-11.32-13.54-1.85,0-3.18.07-3.92.3-.52.15-.67.44-.67,1.04v22.49Z"/>
    <path class="cls-2" d="m813.79,435.94c0-3.99-.74-5.62-1.7-7.77-.52-1.18-10.43-17.46-13.02-21.3-1.85-2.74-3.7-4.58-5.1-5.4-.96-.52-2.22-.96-3.11-.96-.59,0-1.11-.15-1.11-.67,0-.44.52-.66,1.41-.66,1.33,0,6.88.22,9.32.22,1.55,0,4.59-.22,7.91-.22.74,0,1.11.22,1.11.66s-.52.52-1.63.81c-.67.15-1.04.74-1.04,1.33s.37,1.48.89,2.51c1.04,2.22,11.39,20.05,12.58,22.12.74-1.77,10.06-18.05,11.1-20.34.74-1.63,1.04-2.88,1.04-3.85,0-.74-.3-1.55-1.55-1.85-.67-.15-1.33-.3-1.33-.74,0-.52.37-.66,1.26-.66,2.44,0,4.81.22,6.95.22,1.63,0,6.51-.22,7.91-.22.81,0,1.33.15,1.33.59,0,.52-.59.74-1.41.74-.74,0-2.14.3-3.25.89-1.55.74-2.37,1.63-3.99,3.62-2.44,2.96-12.8,20.34-14.13,23.52-1.11,2.66-1.11,4.96-1.11,7.4v6.07c0,1.18,0,4.29.22,7.4.15,2.15.81,3.77,3.03,4.07,1.04.15,2.66.3,3.7.3.81,0,1.18.22,1.18.59,0,.52-.59.74-1.55.74-4.66,0-9.32-.22-11.32-.22-1.85,0-6.51.22-9.25.22-1.04,0-1.63-.15-1.63-.74,0-.37.37-.59,1.18-.59,1.04,0,1.92-.15,2.59-.3,1.48-.3,2.15-1.92,2.29-4.07.22-3.11.22-6.21.22-7.4v-6.07Z"/>
  </g>
  <g>
    <path class="cls-2" d="m482.77,478.03c1.72,0,3.19.35,4.4,1.04,1.21.69,2.13,1.63,2.74,2.82.61,1.19.92,2.52.92,3.99s-.31,2.81-.92,4.01c-.61,1.2-1.52,2.15-2.74,2.84-1.21.69-2.68,1.04-4.4,1.04h-7.38v8.06h-2.01v-23.8h9.38Zm-.07,13.84c1.99,0,3.51-.55,4.54-1.65,1.03-1.1,1.55-2.53,1.55-4.3s-.52-3.21-1.55-4.32c-1.03-1.11-2.54-1.67-4.54-1.67h-7.31v11.93h7.31Z"/>
    <path class="cls-2" d="m528.7,501.82h-2.21l-2.58-5.78h-14.07l-2.58,5.78h-2.21l10.67-23.8h2.31l10.67,23.8Zm-11.86-21.79c-.59,1.45-1.53,3.6-2.82,6.46l-3.37,7.68h12.41l-3.4-7.75c-.07-.16-.15-.34-.24-.54s-.18-.42-.27-.65c-1.04-2.31-1.79-4.05-2.24-5.2h-.07Z"/>
    <path class="cls-2" d="m562.25,501.82l-8.12-8.91h-5.3v8.91h-2.04v-23.8h9.38c1.56,0,2.94.31,4.13.92,1.19.61,2.11,1.48,2.75,2.6.65,1.12.97,2.42.97,3.89,0,2.13-.66,3.88-1.99,5.24-1.33,1.36-3.1,2.11-5.32,2.24l8.16,8.91h-2.62Zm-1.85-20.36c-1.05-1-2.49-1.49-4.3-1.49h-7.28v11.05h7.31c1.79,0,3.21-.5,4.27-1.5,1.05-1,1.58-2.33,1.58-4.01s-.53-3.05-1.58-4.05Z"/>
    <path class="cls-2" d="m579.93,478.03h18.94v1.87h-8.46v21.93h-2.01v-21.93h-8.46v-1.87Z"/>
    <path class="cls-2" d="m616.64,501.82v-23.8h2.07l13.22,18.19,1.73,2.41.07-.03c-.05-.68-.07-1.33-.07-1.94v-18.63h2.01v23.8h-2.01l-13.29-18.19c-.93-1.27-1.5-2.07-1.7-2.41l-.07.03c.02.34.03.99.03,1.94v18.63h-2.01Z"/>
    <path class="cls-2" d="m658.49,490.74v9.14h13.9v1.94h-15.91v-23.8h15.54v1.9h-13.53v8.91h12.85v1.9h-12.85Z"/>
    <path class="cls-2" d="m707.24,501.82l-8.12-8.91h-5.3v8.91h-2.04v-23.8h9.38c1.56,0,2.94.31,4.13.92,1.19.61,2.11,1.48,2.75,2.6.65,1.12.97,2.42.97,3.89,0,2.13-.66,3.88-1.99,5.24-1.33,1.36-3.1,2.11-5.32,2.24l8.16,8.91h-2.62Zm-1.85-20.36c-1.05-1-2.49-1.49-4.3-1.49h-7.28v11.05h7.31c1.79,0,3.21-.5,4.27-1.5,1.05-1,1.58-2.33,1.58-4.01s-.53-3.05-1.58-4.05Z"/>
    <path class="cls-2" d="m726.61,499.31l1.02-1.6c2.52,1.74,5.11,2.62,7.79,2.62,1.97,0,3.56-.42,4.76-1.27,1.2-.85,1.8-2.02,1.8-3.52,0-.93-.19-1.7-.58-2.31s-1.06-1.14-2.02-1.58-2.33-.84-4.1-1.21c-1.95-.39-3.5-.86-4.64-1.41-1.14-.55-1.98-1.24-2.52-2.06s-.8-1.81-.8-2.99c0-1.27.36-2.39,1.07-3.37.71-.97,1.69-1.72,2.94-2.24,1.25-.52,2.65-.78,4.22-.78,2.74,0,5.19.72,7.34,2.18l-1.09,1.53c-1.81-1.2-3.9-1.8-6.25-1.8-1.81,0-3.3.4-4.47,1.21-1.17.8-1.75,1.89-1.75,3.25,0,.84.21,1.54.63,2.09.42.55,1.09,1.04,2.02,1.44.93.41,2.22.78,3.88,1.12,2.06.43,3.68.95,4.86,1.55,1.18.6,2.02,1.33,2.53,2.18.51.85.76,1.91.76,3.18,0,2.09-.79,3.73-2.38,4.93-1.59,1.2-3.67,1.8-6.25,1.8-3.22,0-6.14-.97-8.77-2.93Z"/>
    <path class="cls-2" d="m787.3,478.03v21.89h13.36v1.9h-15.37v-23.8h2.01Z"/>
    <path class="cls-2" d="m827.89,478.03c1.72,0,3.19.35,4.4,1.04,1.21.69,2.13,1.63,2.74,2.82.61,1.19.92,2.52.92,3.99s-.31,2.81-.92,4.01c-.61,1.2-1.52,2.15-2.74,2.84-1.21.69-2.68,1.04-4.4,1.04h-7.38v8.06h-2.01v-23.8h9.38Zm-.07,13.84c1.99,0,3.51-.55,4.54-1.65,1.03-1.1,1.55-2.53,1.55-4.3s-.52-3.21-1.55-4.32c-1.03-1.11-2.54-1.67-4.54-1.67h-7.31v11.93h7.31Z"/>
  </g>
  <polygon class="cls-2" points="279.82 272.52 352.53 209 352.53 406.09 279.82 467.21 279.82 272.52"/>
  <polygon class="cls-2" points="433.43 315.82 360.73 252.3 360.73 449.38 433.43 510.51 433.43 315.82"/>
  <g>
    <path class="cls-1" d="m290.28,396.95c.2.45.49,1.09.91,1.82,2.44,4.25,7.79,9.43,15.46,10,1.06.08,8.17.49,14-4.73,2.85-2.55,4.25-5.42,4.91-7.09-4.03,1.46-9.28,2.36-17.64,2.91-7.05.46-13.86-1.54-17.64-2.91Z"/>
    <path class="cls-1" d="m393.96,362.76c0,1.66,1.17,3.04,2.73,3.38v.89l-12.4,28.34,1.33.58,11.07-25.3v26.12h1.45v-26.01l11.03,25.19,1.33-.58-12.36-28.24v-.99c1.56-.33,2.73-1.72,2.73-3.38,0-.91-.36-1.73-.93-2.34l8.59-.16-.04-2.28-29.48.54c-3.56-3.49-12.55-10.72-25.81-10.72h-.08c-12.96.03-21.84,7-25.36,10.36l-30.36-.36-.03,2.28,8.3.1c-.72.63-1.18,1.55-1.18,2.58,0,1.66,1.17,3.04,2.73,3.38v.89l-12.4,28.34,1.33.58,11.07-25.3v26.12h1.46v-26.01l11.03,25.19,1.33-.58-12.36-28.24v-.99c1.56-.33,2.73-1.72,2.73-3.38,0-1-.43-1.9-1.11-2.53l18.39.22.34-.33c3.06-3.01,11.54-10.01,24.11-10.04h.08c12.86,0,21.45,7.26,24.54,10.39l.34.35,16.73-.3c-.52.61-.85,1.39-.85,2.25Z"/>
    <path class="cls-1" d="m397.4,399.86c-7.05.46-13.86-1.54-17.64-2.91.2.45.49,1.09.91,1.82,2.44,4.25,7.79,9.43,15.46,10,1.06.08,8.17.49,14-4.73,2.85-2.55,4.25-5.42,4.91-7.09-4.03,1.46-9.28,2.36-17.64,2.91Z"/>
  </g>
</svg>