<?xml version="1.0" encoding="UTF-8"?>
<svg id="Layer_1" data-name="Layer 1" xmlns="http://www.w3.org/2000/svg" viewBox="0 0 1080 720">
  <defs>
    <style>
      .cls-1 {
        fill: #002f68;
      }

      .cls-2 {
        fill: #0071bc;
      }

      .cls-3 {
        fill: #fff;
      }
    </style>
  </defs>
  <path class="cls-1" d="m410.11,343.67c0-11.47,0-13.59-.15-16-.15-2.57-.75-3.77-3.25-4.3-.6-.15-1.89-.23-2.94-.23-.83,0-1.28-.15-1.28-.68s.53-.68,1.66-.68c4,0,8.76.23,10.87.23,2.34,0,7.1-.23,11.63-.23,9.44,0,22.04,0,30.27,8.61,3.77,3.93,7.32,10.19,7.32,19.18,0,9.51-4,16.76-8.23,21.06-3.47,3.55-11.32,8.91-25.29,8.91-2.72,0-5.81-.23-8.68-.45-2.87-.23-5.51-.45-7.4-.45-.83,0-2.49,0-4.3.08-1.74,0-3.7.15-5.21.15-.98,0-1.51-.23-1.51-.75,0-.38.3-.6,1.21-.6,1.13,0,2.04-.15,2.72-.3,1.51-.3,1.89-1.96,2.19-4.15.38-3.17.38-9.13.38-16.08v-13.29Zm9.44,8.3c0,8,.08,13.82.15,15.25.08,1.89.23,4.91.83,5.74.98,1.44,3.93,3.02,9.89,3.02,7.7,0,12.83-1.51,17.36-5.44,4.83-4.15,6.34-11.02,6.34-18.8,0-9.59-4-15.78-7.25-18.87-6.95-6.64-15.55-7.55-21.44-7.55-1.51,0-4.3.23-4.91.53-.68.3-.91.68-.91,1.51-.08,2.57-.08,9.13-.08,15.1v9.51Z"/>
  <path class="cls-1" d="m480.03,343.67c0-11.47,0-13.59-.15-16-.15-2.57-.91-3.85-2.57-4.23-.83-.23-1.81-.3-2.72-.3-.75,0-1.21-.15-1.21-.76,0-.45.6-.6,1.81-.6,2.87,0,7.62.23,9.81.23,1.89,0,6.34-.23,9.21-.23.98,0,1.59.15,1.59.6,0,.6-.45.76-1.21.76s-1.36.08-2.27.23c-2.04.38-2.64,1.66-2.79,4.3-.15,2.42-.15,4.53-.15,16v13.29c0,7.32,0,13.29.3,16.53.23,2.04.75,3.4,3.02,3.7,1.06.15,2.72.3,3.85.3.83,0,1.21.23,1.21.6,0,.53-.6.75-1.43.75-4.98,0-9.74-.23-11.78-.23-1.74,0-6.49.23-9.51.23-.98,0-1.51-.23-1.51-.75,0-.38.3-.6,1.21-.6,1.13,0,2.04-.15,2.72-.3,1.51-.3,1.96-1.59,2.19-3.77.38-3.17.38-9.14.38-16.46v-13.29Z"/>
  <path class="cls-1" d="m514.53,371.68c-7.4-6.49-9.36-14.95-9.36-22.27,0-5.13,1.58-14.04,8.83-20.69,5.44-4.98,12.61-8,23.86-8,4.68,0,7.47.3,10.95.76,2.87.38,5.28,1.06,7.55,1.28.83.08,1.13.45,1.13.91,0,.6-.23,1.51-.38,4.15-.15,2.49-.08,6.64-.23,8.15-.08,1.13-.23,1.74-.91,1.74-.6,0-.75-.6-.75-1.66-.08-2.34-1.06-4.98-2.94-6.95-2.49-2.64-8.38-4.68-15.33-4.68-6.57,0-10.87,1.66-14.19,4.68-5.51,5.06-6.95,12.23-6.95,19.55,0,17.97,13.66,26.88,23.78,26.88,6.72,0,10.8-.75,13.82-4.23,1.28-1.43,2.27-3.62,2.57-4.98.23-1.21.38-1.51.98-1.51.53,0,.68.53.68,1.13,0,.91-.91,7.48-1.66,10.04-.38,1.28-.68,1.66-1.96,2.19-3.02,1.21-8.76,1.74-13.59,1.74-10.34,0-19.02-2.27-25.9-8.23Z"/>
  <path class="cls-1" d="m583.01,346.99h.38c2.57-2.79,13.59-14.04,15.78-16.61,2.11-2.49,3.77-4.38,3.77-5.66,0-.83-.3-1.36-1.06-1.51-.68-.15-.98-.3-.98-.76,0-.53.38-.68,1.21-.68,1.59,0,5.74.23,7.78.23,2.34,0,6.49-.23,8.83-.23.75,0,1.28.15,1.28.68s-.38.68-1.13.68c-1.06,0-2.94.3-4.38.83-2.34.9-4.91,2.49-8.15,5.66-2.34,2.27-13.74,13.59-16.31,16.31,2.72,3.55,17.52,19.48,20.46,22.27,3.32,3.17,6.72,6.57,10.8,8.15,2.27.91,3.77,1.13,4.68,1.13.53,0,.98.15.98.6,0,.53-.38.75-1.81.75h-6.57c-2.27,0-3.62,0-5.21-.15-4.08-.38-6.12-2.04-9.36-4.91-3.32-2.94-18.2-20.38-19.78-22.57l-.83-1.13h-.38v6.87c0,6.95,0,12.91.23,16.16.15,2.11.83,3.78,2.72,4.08,1.06.15,2.72.3,3.7.3.6,0,.98.23.98.6,0,.53-.6.75-1.43.75-4.23,0-8.98-.23-10.87-.23-1.74,0-6.49.23-9.51.23-.98,0-1.51-.23-1.51-.75,0-.38.3-.6,1.21-.6,1.13,0,2.04-.15,2.72-.3,1.51-.3,1.89-1.96,2.19-4.15.38-3.17.38-9.13.38-16.08v-13.29c0-11.47,0-13.59-.15-16-.15-2.57-.75-3.77-3.25-4.3-.6-.15-1.89-.23-2.94-.23-.83,0-1.28-.15-1.28-.68s.53-.68,1.66-.68c4,0,8.76.23,10.57.23s6.57-.23,9.13-.23c1.06,0,1.59.15,1.59.68s-.45.68-1.06.68c-.75,0-1.21.08-2.11.23-2.04.38-2.64,1.66-2.79,4.3-.15,2.42-.15,4.53-.15,16v3.32Z"/>
  <path class="cls-1" d="m628.01,377.94c-1.21-.53-1.43-.9-1.43-2.57,0-4.15.3-8.68.38-9.89.08-1.13.3-1.96.91-1.96.68,0,.76.68.76,1.28,0,.98.3,2.57.68,3.85,1.66,5.59,6.12,7.62,10.8,7.62,6.79,0,10.12-4.61,10.12-8.61,0-3.7-1.13-7.17-7.4-12.08l-3.47-2.72c-8.3-6.49-11.17-11.78-11.17-17.89,0-8.3,6.95-14.27,17.44-14.27,4.91,0,8.08.76,10.04,1.28.68.15,1.06.38,1.06.91,0,.98-.3,3.17-.3,9.06,0,1.66-.23,2.27-.83,2.27-.53,0-.75-.45-.75-1.36,0-.68-.38-3.02-1.96-4.98-1.13-1.43-3.32-3.7-8.23-3.7-5.59,0-8.98,3.25-8.98,7.78,0,3.47,1.74,6.12,8,10.87l2.11,1.59c9.13,6.87,12.38,12.08,12.38,19.25,0,4.38-1.66,9.59-7.1,13.14-3.77,2.42-8,3.09-12,3.09-4.38,0-7.78-.53-11.02-1.96Z"/>
  <path class="cls-1" d="m667.88,350.31c0-12.91,8.53-29.6,31.18-29.6,18.8,0,30.5,10.95,30.5,28.23s-12.08,30.95-31.26,30.95c-21.67,0-30.42-16.23-30.42-29.59Zm51.11,1.43c0-16.91-9.74-27.41-22.12-27.41-8.68,0-18.57,4.83-18.57,23.63,0,15.7,8.68,28.16,23.18,28.16,5.28,0,17.52-2.57,17.52-24.38Z"/>
  <path class="cls-1" d="m749.57,368.58c.15,5.89,1.13,7.85,2.64,8.38,1.28.45,2.72.53,3.93.53.83,0,1.28.15,1.28.6,0,.6-.68.75-1.74.75-4.91,0-7.93-.23-9.36-.23-.68,0-4.23.23-8.15.23-.98,0-1.66-.08-1.66-.75,0-.45.45-.6,1.21-.6.98,0,2.34-.08,3.4-.38,1.96-.6,2.26-2.79,2.34-9.36l.68-44.69c0-1.51.23-2.57.98-2.57.83,0,1.51.98,2.79,2.34.91.98,12.38,13.29,23.4,24.23,5.13,5.13,15.33,16,16.61,17.21h.38l-.76-33.9c-.08-4.61-.75-6.04-2.57-6.8-1.13-.45-2.94-.45-4-.45-.91,0-1.21-.23-1.21-.68,0-.6.83-.68,1.96-.68,3.93,0,7.55.23,9.13.23.83,0,3.7-.23,7.4-.23.98,0,1.74.08,1.74.68,0,.45-.45.68-1.36.68-.75,0-1.36,0-2.27.23-2.11.6-2.72,2.19-2.79,6.42l-.83,47.64c0,1.66-.3,2.34-.98,2.34-.83,0-1.74-.83-2.57-1.66-4.76-4.53-14.42-14.42-22.27-22.2-8.23-8.15-16.61-17.59-17.97-19.03h-.23l.83,31.71Z"/>
  <path class="cls-2" d="m414.42,423.54c-3.17-4.23-3.78-7.32-3.85-10.72-.08-5.96,5.21-13.89,18.35-13.89,3.7,0,7.1.76,9.13,1.58,1.28.45,1.28,1.06,1.28,1.96,0,2.49-.6,8.53-.83,9.66-.15,1.13-.45,1.28-.91,1.28s-.53-.3-.53-1.43c0-1.96-.53-4.38-2.19-6.34-1.51-1.81-4.15-3.4-8.38-3.4-3.17,0-8.08,2.19-8.08,8.61,0,7.1,6.49,13.14,12.53,19.85,2.57,2.95,11.85,11.33,13.29,12.61,1.51-2.11,3.62-7.02,3.62-11.63,0-1.13-.3-2.49-1.43-3.47-.98-.9-2.57-1.13-3.7-1.13-.45,0-.91-.15-.91-.6,0-.6.6-.76,1.21-.76,1.81,0,4.83.08,9.06.53,1.43.15,2.57.6,2.57,1.51,0,5.81-3.1,12.83-7.4,17.89,5.06,4.15,8.46,6.19,10.49,7.4,2.42,1.43,6.57,2.64,8.08,2.64.68,0,1.06.08,1.06.68,0,.45-.6.68-2.26.68h-5.81c-8.61,0-11.32-.83-17.82-5.81-2.49,2.27-7.55,6.87-17.89,6.87-16.16,0-20.99-10.12-20.99-16.68,0-8.83,7.78-15.7,12.31-17.89Zm23.63,25.29c-4.38-3.77-11.63-10.87-13.59-12.98-1.96-2.11-6.79-7.55-8.08-9.44-2.57,1.89-5.21,5.43-5.21,11.47,0,9.44,6.64,15.48,14.5,15.48,5.81,0,10.8-3.02,12.38-4.53Z"/>
  <path class="cls-1" d="m534.16,423.99c.23,0,.45-.15.45-.53v-1.58c0-11.47,0-13.59-.15-16-.15-2.57-.75-3.77-3.25-4.3-.6-.15-1.89-.23-2.94-.23-.83,0-1.28-.15-1.28-.68s.53-.68,1.58-.68c4.08,0,8.83.23,10.87.23,1.81,0,6.57-.23,9.51-.23,1.06,0,1.59.15,1.59.68s-.45.68-1.36.68c-.6,0-1.28.08-2.19.23-2.04.38-2.64,1.66-2.79,4.3-.15,2.42-.15,4.53-.15,16v13.29c0,6.95,0,12.91.38,16.16.23,2.11.68,3.78,2.94,4.08,1.06.15,2.72.3,3.85.3.83,0,1.21.23,1.21.6,0,.53-.6.75-1.51.75-4.91,0-9.66-.23-11.78-.23-1.74,0-6.49.23-9.44.23-1.06,0-1.58-.23-1.58-.75,0-.38.3-.6,1.21-.6,1.13,0,2.04-.15,2.72-.3,1.51-.3,1.89-1.96,2.19-4.15.38-3.17.38-9.13.38-16.08v-6.64c0-.3-.23-.45-.45-.45h-28.84c-.23,0-.45.08-.45.45v6.64c0,6.95,0,12.91.38,16.16.23,2.11.68,3.78,2.94,4.08,1.06.15,2.72.3,3.85.3.83,0,1.21.23,1.21.6,0,.53-.6.75-1.51.75-4.91,0-9.66-.23-11.78-.23-1.74,0-6.49.23-9.51.23-.98,0-1.51-.23-1.51-.75,0-.38.3-.6,1.21-.6,1.13,0,2.04-.15,2.72-.3,1.51-.3,1.89-1.96,2.19-4.15.38-3.17.38-9.13.38-16.08v-13.29c0-11.47,0-13.59-.15-16-.15-2.57-.75-3.77-3.25-4.3-.6-.15-1.89-.23-2.94-.23-.83,0-1.28-.15-1.28-.68s.53-.68,1.59-.68c4.08,0,8.83.23,10.87.23,1.81,0,6.57-.23,9.51-.23,1.06,0,1.59.15,1.59.68s-.45.68-1.36.68c-.6,0-1.28.08-2.19.23-2.04.38-2.64,1.66-2.79,4.3-.15,2.42-.15,4.53-.15,16v1.58c0,.38.23.53.45.53h28.84Z"/>
  <path class="cls-1" d="m568.82,421.88c0-11.47,0-13.59-.15-16-.15-2.57-.75-3.77-3.25-4.3-.6-.15-1.89-.23-2.94-.23-.83,0-1.28-.15-1.28-.68s.53-.68,1.66-.68c2.04,0,4.23.08,6.12.08,1.96.08,3.7.15,4.76.15,2.42,0,17.44,0,18.87-.08,1.43-.15,2.64-.3,3.25-.45.38-.08.83-.3,1.21-.3s.45.3.45.68c0,.53-.38,1.43-.6,4.91-.08.76-.23,4.08-.38,4.98-.08.38-.23.83-.75.83s-.68-.38-.68-1.06c0-.53-.08-1.81-.45-2.72-.53-1.36-1.28-2.27-5.06-2.72-1.28-.15-9.21-.3-10.72-.3-.38,0-.53.23-.53.76v19.1c0,.53.08.83.53.83,1.66,0,10.34,0,12.08-.15,1.81-.15,2.94-.38,3.62-1.13.53-.6.83-.98,1.21-.98.3,0,.53.15.53.6s-.3,1.66-.6,5.51c-.08,1.51-.3,4.53-.3,5.06,0,.6,0,1.43-.68,1.43-.53,0-.68-.3-.68-.68-.08-.75-.08-1.74-.3-2.72-.38-1.51-1.43-2.64-4.23-2.94-1.43-.15-8.91-.23-10.72-.23-.38,0-.45.3-.45.75v5.96c0,2.57-.08,9.51,0,11.7.15,5.21,1.36,6.34,9.06,6.34,1.96,0,5.13,0,7.1-.91,1.96-.91,2.87-2.49,3.4-5.59.15-.83.3-1.13.83-1.13.6,0,.6.6.6,1.36,0,1.74-.6,6.87-.98,8.38-.53,1.96-1.21,1.96-4.08,1.96-5.66,0-9.82-.15-13.06-.23-3.25-.15-5.59-.23-7.85-.23-.83,0-2.49,0-4.3.08-1.74,0-3.7.15-5.21.15-.98,0-1.51-.23-1.51-.75,0-.38.3-.6,1.21-.6,1.13,0,2.04-.15,2.72-.3,1.51-.3,1.89-1.96,2.19-4.15.38-3.17.38-9.13.38-16.08v-13.29Z"/>
  <path class="cls-1" d="m620.76,446.79c.15,5.89,1.13,7.85,2.64,8.38,1.28.45,2.72.53,3.93.53.83,0,1.28.15,1.28.6,0,.6-.68.75-1.74.75-4.91,0-7.93-.23-9.36-.23-.68,0-4.23.23-8.15.23-.98,0-1.66-.08-1.66-.75,0-.45.45-.6,1.21-.6.98,0,2.34-.08,3.4-.38,1.96-.6,2.27-2.79,2.34-9.36l.68-44.69c0-1.51.23-2.57.98-2.57.83,0,1.51.98,2.79,2.34.91.98,12.38,13.29,23.4,24.23,5.13,5.13,15.33,16,16.61,17.21h.38l-.76-33.9c-.08-4.61-.75-6.04-2.57-6.8-1.13-.45-2.94-.45-4-.45-.91,0-1.21-.23-1.21-.68,0-.6.83-.68,1.96-.68,3.93,0,7.55.23,9.13.23.83,0,3.7-.23,7.4-.23.98,0,1.74.08,1.74.68,0,.45-.45.68-1.36.68-.76,0-1.36,0-2.27.23-2.11.6-2.72,2.19-2.79,6.42l-.83,47.64c0,1.66-.3,2.34-.98,2.34-.83,0-1.74-.83-2.57-1.66-4.76-4.53-14.42-14.42-22.27-22.2-8.23-8.15-16.61-17.59-17.97-19.03h-.23l.83,31.71Z"/>
  <path class="cls-1" d="m688.03,421.88c0-11.47,0-13.59-.15-16-.15-2.57-.75-3.77-3.25-4.3-.6-.15-1.89-.23-2.94-.23-.83,0-1.28-.15-1.28-.68s.53-.68,1.66-.68c4,0,8.76.23,10.34.23,2.57,0,8.3-.23,10.64-.23,4.76,0,9.82.45,13.89,3.25,2.11,1.43,5.13,5.28,5.13,10.34,0,5.59-2.34,10.72-9.97,16.91,6.72,8.46,11.93,15.18,16.38,19.86,4.23,4.38,7.32,4.91,8.46,5.13.83.15,1.51.23,2.11.23s.91.23.91.6c0,.6-.53.75-1.43.75h-7.17c-4.23,0-6.12-.38-8.08-1.43-3.25-1.74-6.12-5.28-10.34-11.1-3.02-4.15-6.49-9.29-7.47-10.42-.38-.45-.83-.53-1.36-.53l-6.57-.15c-.38,0-.6.15-.6.6v1.06c0,7.02,0,12.99.38,16.16.23,2.19.68,3.85,2.94,4.15,1.13.15,2.79.3,3.7.3.6,0,.91.23.91.6,0,.53-.53.75-1.51.75-4.38,0-9.97-.23-11.1-.23-1.43,0-6.19.23-9.21.23-.98,0-1.51-.23-1.51-.75,0-.38.3-.6,1.21-.6,1.13,0,2.04-.15,2.72-.3,1.51-.3,1.89-1.96,2.19-4.15.38-3.17.38-9.13.38-16.08v-13.29Zm8.91,5.96c0,.83.15,1.13.68,1.36,1.59.53,3.85.76,5.74.76,3.02,0,4-.3,5.36-1.28,2.27-1.66,4.45-5.13,4.45-11.33,0-10.72-7.1-13.82-11.55-13.82-1.89,0-3.25.08-4,.3-.53.15-.68.45-.68,1.06v22.95Z"/>
  <path class="cls-1" d="m751.98,437.51c0-4.08-.76-5.74-1.74-7.93-.53-1.21-10.65-17.82-13.29-21.74-1.89-2.79-3.78-4.68-5.21-5.51-.98-.53-2.27-.98-3.17-.98-.6,0-1.13-.15-1.13-.68,0-.45.53-.68,1.43-.68,1.36,0,7.02.23,9.51.23,1.59,0,4.68-.23,8.08-.23.76,0,1.13.23,1.13.68s-.53.53-1.66.83c-.68.15-1.06.76-1.06,1.36s.38,1.51.91,2.57c1.06,2.27,11.63,20.46,12.83,22.57.76-1.81,10.27-18.42,11.32-20.76.75-1.66,1.06-2.94,1.06-3.93,0-.76-.3-1.59-1.59-1.89-.68-.15-1.36-.3-1.36-.76,0-.53.38-.68,1.28-.68,2.49,0,4.91.23,7.1.23,1.66,0,6.64-.23,8.08-.23.83,0,1.36.15,1.36.6,0,.53-.6.76-1.43.76-.75,0-2.19.3-3.32.91-1.59.75-2.42,1.66-4.08,3.7-2.49,3.02-13.06,20.76-14.42,24.01-1.13,2.72-1.13,5.06-1.13,7.55v6.19c0,1.21,0,4.38.23,7.55.15,2.19.83,3.85,3.1,4.15,1.06.15,2.72.3,3.77.3.83,0,1.21.23,1.21.6,0,.53-.6.75-1.59.75-4.76,0-9.51-.23-11.55-.23-1.89,0-6.64.23-9.44.23-1.06,0-1.66-.15-1.66-.75,0-.38.38-.6,1.21-.6,1.06,0,1.96-.15,2.64-.3,1.51-.3,2.19-1.96,2.34-4.15.23-3.17.23-6.34.23-7.55v-6.19Z"/>
  <g>
    <path d="m414.15,480.46c1.76,0,3.26.35,4.49,1.06,1.24.71,2.17,1.67,2.79,2.88.62,1.21.94,2.57.94,4.08s-.31,2.87-.94,4.09c-.62,1.23-1.56,2.19-2.79,2.9-1.24.71-2.74,1.06-4.49,1.06h-7.53v8.22h-2.05v-24.29h9.58Zm-.07,14.12c2.03,0,3.58-.56,4.63-1.68,1.05-1.12,1.58-2.58,1.58-4.39s-.53-3.27-1.58-4.41c-1.05-1.13-2.6-1.7-4.63-1.7h-7.46v12.18h7.46Z"/>
    <path d="m461.02,504.75h-2.26l-2.64-5.9h-14.36l-2.64,5.9h-2.25l10.89-24.29h2.36l10.89,24.29Zm-12.11-22.24c-.6,1.48-1.56,3.68-2.88,6.59l-3.44,7.84h12.66l-3.47-7.91c-.07-.16-.15-.35-.24-.56s-.19-.43-.28-.66c-1.06-2.36-1.83-4.13-2.29-5.31h-.07Z"/>
    <path d="m495.26,504.75l-8.29-9.09h-5.41v9.09h-2.08v-24.29h9.58c1.6,0,3,.31,4.22.94s2.15,1.51,2.81,2.65c.66,1.14.99,2.47.99,3.97,0,2.18-.68,3.96-2.03,5.34s-3.16,2.15-5.43,2.29l8.33,9.09h-2.67Zm-1.89-20.78c-1.08-1.02-2.54-1.53-4.39-1.53h-7.42v11.28h7.46c1.83,0,3.28-.51,4.35-1.53,1.08-1.02,1.61-2.38,1.61-4.09s-.54-3.11-1.61-4.13Z"/>
    <path d="m513.31,480.46h19.33v1.91h-8.64v22.38h-2.05v-22.38h-8.64v-1.91Z"/>
    <path d="m550.78,504.75v-24.29h2.12l13.5,18.56,1.77,2.46.07-.04c-.05-.69-.07-1.35-.07-1.98v-19.01h2.05v24.29h-2.05l-13.57-18.56c-.95-1.3-1.53-2.12-1.73-2.46l-.07.04c.02.35.03,1.01.03,1.98v19.01h-2.05Z"/>
    <path d="m593.49,493.44v9.33h14.19v1.98h-16.24v-24.29h15.86v1.94h-13.81v9.09h13.12v1.94h-13.12Z"/>
    <path d="m643.24,504.75l-8.29-9.09h-5.41v9.09h-2.08v-24.29h9.58c1.6,0,3,.31,4.22.94s2.15,1.51,2.81,2.65c.66,1.14.99,2.47.99,3.97,0,2.18-.68,3.96-2.03,5.34s-3.16,2.15-5.43,2.29l8.33,9.09h-2.67Zm-1.89-20.78c-1.08-1.02-2.54-1.53-4.39-1.53h-7.42v11.28h7.46c1.83,0,3.28-.51,4.35-1.53,1.08-1.02,1.61-2.38,1.61-4.09s-.54-3.11-1.61-4.13Z"/>
    <path d="m663.02,502.18l1.04-1.63c2.57,1.78,5.22,2.67,7.95,2.67,2.01,0,3.63-.43,4.86-1.3,1.23-.87,1.84-2.06,1.84-3.59,0-.95-.2-1.74-.59-2.36-.39-.62-1.08-1.16-2.06-1.61-.98-.45-2.38-.86-4.18-1.23-1.99-.39-3.57-.87-4.74-1.44-1.17-.57-2.02-1.27-2.57-2.1s-.81-1.85-.81-3.05c0-1.29.36-2.44,1.09-3.43.73-.99,1.73-1.76,3-2.29,1.27-.53,2.71-.8,4.3-.8,2.8,0,5.3.74,7.49,2.22l-1.11,1.56c-1.85-1.23-3.98-1.84-6.38-1.84-1.85,0-3.37.41-4.56,1.23-1.19.82-1.79,1.92-1.79,3.31,0,.86.21,1.57.64,2.14.43.57,1.12,1.06,2.06,1.47.95.42,2.27.8,3.96,1.14,2.1.44,3.76.97,4.96,1.58,1.2.61,2.06,1.35,2.59,2.22s.78,1.95.78,3.24c0,2.13-.81,3.81-2.43,5.03-1.62,1.23-3.75,1.84-6.38,1.84-3.29,0-6.27-.99-8.95-2.99Z"/>
    <path d="m724.95,480.46v22.34h13.64v1.94h-15.68v-24.29h2.05Z"/>
    <path d="m766.38,480.46c1.76,0,3.26.35,4.49,1.06,1.24.71,2.17,1.67,2.79,2.88.62,1.21.94,2.57.94,4.08s-.31,2.87-.94,4.09c-.62,1.23-1.56,2.19-2.79,2.9-1.24.71-2.74,1.06-4.49,1.06h-7.53v8.22h-2.05v-24.29h9.58Zm-.07,14.12c2.03,0,3.58-.56,4.63-1.68,1.05-1.12,1.58-2.58,1.58-4.39s-.53-3.27-1.58-4.41c-1.05-1.13-2.6-1.7-4.63-1.7h-7.46v12.18h7.46Z"/>
  </g>
  <polygon class="cls-2" points="207.02 270.72 281.22 205.9 281.22 407.04 207.02 469.42 207.02 270.72"/>
  <polygon class="cls-1" points="363.79 314.91 289.59 250.09 289.59 451.23 363.79 513.61 363.79 314.91"/>
  <g>
    <path class="cls-3" d="m217.7,397.71c.2.46.5,1.11.93,1.86,2.49,4.34,7.96,9.63,15.78,10.21,1.09.08,8.34.5,14.29-4.83,2.91-2.6,4.33-5.53,5.01-7.24-4.11,1.49-9.47,2.41-18.01,2.97-7.2.47-14.15-1.57-18.01-2.97Z"/>
    <path class="cls-3" d="m323.51,362.82c0,1.69,1.19,3.1,2.78,3.45v.91l-12.66,28.93,1.36.6,11.3-25.82v26.65h1.48v-26.55l11.25,25.71,1.36-.6-12.61-28.82v-1.01c1.59-.34,2.79-1.75,2.79-3.45,0-.93-.36-1.76-.95-2.39l8.76-.16-.04-2.33-30.08.55c-3.64-3.56-12.8-10.94-26.35-10.94h-.08c-13.23.03-22.29,7.15-25.88,10.57l-30.99-.37-.03,2.33,8.47.1c-.73.65-1.2,1.58-1.2,2.64,0,1.69,1.19,3.1,2.78,3.45v.91l-12.66,28.93,1.36.6,11.3-25.82v26.65h1.49v-26.55l11.25,25.71,1.36-.6-12.61-28.82v-1.01c1.59-.34,2.79-1.75,2.79-3.45,0-1.02-.44-1.94-1.14-2.58l18.77.22.35-.34c3.13-3.07,11.78-10.22,24.61-10.25h.08c13.13,0,21.89,7.41,25.05,10.61l.35.35,17.07-.31c-.53.62-.87,1.41-.87,2.29Z"/>
    <path class="cls-3" d="m327.02,400.68c-7.2.47-14.15-1.57-18.01-2.97.2.46.5,1.11.93,1.86,2.49,4.34,7.96,9.63,15.78,10.21,1.09.08,8.34.5,14.29-4.83,2.91-2.6,4.33-5.53,5.01-7.24-4.11,1.49-9.47,2.41-18.01,2.97Z"/>
  </g>
</svg>