<?xml version="1.0" encoding="UTF-8" standalone="no"?><!DOCTYPE svg PUBLIC "-//W3C//DTD SVG 1.1//EN" "http://www.w3.org/Graphics/SVG/1.1/DTD/svg11.dtd"><svg width="100%" height="100%" viewBox="0 0 2216 1380" version="1.1" xmlns="http://www.w3.org/2000/svg" xmlns:xlink="http://www.w3.org/1999/xlink" xml:space="preserve" xmlns:serif="http://www.serif.com/" style="fill-rule:evenodd;clip-rule:evenodd;stroke-linejoin:round;stroke-miterlimit:2;"><rect id="Artboard1" x="0" y="0" width="2215.87" height="1379.14" style="fill:none;"/><path d="M772.375,747.071c0,-33.036 0,-39.142 -0.578,-46.083c-0.578,-7.403 -2.89,-10.859 -12.522,-12.385c-2.312,-0.432 -7.283,-0.663 -11.328,-0.663c-3.198,0 -4.932,-0.432 -4.932,-1.958c-0,-1.527 2.042,-1.959 6.396,-1.959c15.412,0 33.753,0.663 41.883,0.663c9.016,-0 27.356,-0.663 44.811,-0.663c36.373,0 84.921,0 116.632,24.799c14.526,11.319 28.204,29.349 28.204,55.243c0,27.39 -15.412,48.272 -31.71,60.657c-13.37,10.225 -43.617,25.663 -97.444,25.663c-10.481,-0 -22.387,-0.663 -33.445,-1.296c-11.058,-0.663 -21.23,-1.296 -28.513,-1.296c-3.198,-0 -9.594,-0 -16.568,0.23c-6.704,0 -14.256,0.432 -20.074,0.432c-3.776,0 -5.818,-0.662 -5.818,-2.16c-0,-1.095 1.156,-1.728 4.662,-1.728c4.354,-0 7.86,-0.432 10.48,-0.864c5.818,-0.864 7.282,-5.646 8.438,-11.953c1.465,-9.131 1.465,-26.297 1.465,-46.314l-0,-38.278l-0.039,-0.087Zm36.373,23.906c-0,23.042 0.308,39.805 0.578,43.923c0.308,5.444 0.886,14.142 3.198,16.533c3.776,4.147 15.143,8.698 38.107,8.698c29.668,0 49.435,-4.349 66.889,-15.668c18.61,-11.953 24.428,-31.74 24.428,-54.148c0,-27.622 -15.412,-45.45 -27.934,-54.35c-26.779,-19.125 -59.915,-21.746 -82.61,-21.746c-5.818,0 -16.568,0.663 -18.919,1.527c-2.62,0.864 -3.506,1.958 -3.506,4.349c-0.308,7.402 -0.308,26.296 -0.308,43.491l-0,27.391l0.077,0Z" style="fill:#002f68;fill-rule:nonzero;"/><path d="M1021.44,747.071c-0,-33.036 -0,-39.142 -0.578,-46.083c-0.578,-7.403 -3.506,-11.089 -9.902,-12.184c-3.198,-0.662 -6.974,-0.864 -10.481,-0.864c-2.89,0 -4.662,-0.432 -4.662,-2.189c0,-1.296 2.312,-1.728 6.974,-1.728c11.058,0 29.36,0.663 37.799,0.663c7.282,-0 24.428,-0.663 35.486,-0.663c3.776,0 6.127,0.432 6.127,1.728c-0,1.728 -1.734,2.189 -4.662,2.189c-2.929,0 -5.241,0.231 -8.747,0.663c-7.86,1.094 -10.172,4.781 -10.75,12.385c-0.578,6.97 -0.578,13.047 -0.578,46.083l0,38.278c0,21.084 0,38.279 1.156,47.61c0.886,5.876 2.89,9.793 11.636,10.657c4.085,0.432 10.481,0.864 14.835,0.864c3.198,0 4.662,0.663 4.662,1.728c-0,1.527 -2.312,2.161 -5.51,2.161c-19.188,-0 -37.529,-0.663 -45.389,-0.663c-6.705,0 -25.007,0.663 -36.643,0.663c-3.776,-0 -5.818,-0.663 -5.818,-2.161c0,-1.094 1.156,-1.728 4.662,-1.728c4.354,0 7.86,-0.432 10.481,-0.864c5.818,-0.864 7.552,-4.579 8.438,-10.858c1.464,-9.13 1.464,-26.325 1.464,-47.409l-0,-38.278Z" style="fill:#002f68;fill-rule:nonzero;"/><path d="M1146.06,824.904c-26.387,-18.693 -33.376,-43.059 -33.376,-64.143c0,-14.775 5.634,-40.438 31.486,-59.591c19.398,-14.344 44.965,-23.042 85.08,-23.042c16.688,-0 26.636,0.864 39.045,2.189c10.234,1.094 18.828,3.053 26.922,3.686c2.96,0.231 4.029,1.296 4.029,2.621c0,1.729 -0.82,4.35 -1.355,11.953c-0.534,7.172 -0.285,19.125 -0.82,23.474c-0.285,3.255 -0.82,5.012 -3.245,5.012c-2.139,-0 -2.674,-1.728 -2.674,-4.781c-0.285,-6.74 -3.78,-14.344 -10.483,-20.018c-8.879,-7.604 -29.882,-13.479 -54.664,-13.479c-23.427,-0 -38.76,4.781 -50.598,13.479c-19.648,14.574 -24.783,35.225 -24.783,56.308c0,51.758 48.709,77.421 84.795,77.421c23.962,-0 38.51,-2.16 49.279,-12.184c4.564,-4.118 8.094,-10.426 9.164,-14.343c0.82,-3.485 1.355,-4.349 3.495,-4.349c1.889,-0 2.424,1.526 2.424,3.254c0,2.621 -3.245,21.544 -5.919,28.918c-1.355,3.687 -2.425,4.781 -6.989,6.308c-10.769,3.485 -31.236,5.011 -48.459,5.011c-36.87,0 -67.821,-6.538 -92.354,-23.704Z" style="fill:#002f68;fill-rule:nonzero;"/><path d="M1388.25,758.264l1.465,-0c9.902,-8.036 52.363,-40.438 60.801,-47.841c8.13,-7.171 14.526,-12.615 14.526,-16.302c0,-2.39 -1.156,-3.917 -4.084,-4.349c-2.62,-0.432 -3.776,-0.864 -3.776,-2.189c-0,-1.526 1.464,-1.958 4.662,-1.958c6.126,-0 22.117,0.662 29.977,0.662c9.016,0 25.006,-0.662 34.022,-0.662c2.89,-0 4.932,0.432 4.932,1.958c0,1.527 -1.464,1.959 -4.354,1.959c-4.084,-0 -11.328,0.864 -16.876,2.39c-9.016,2.592 -18.919,7.172 -31.403,16.302c-9.016,6.538 -52.941,39.143 -62.843,46.977c10.48,10.225 67.506,56.107 78.834,64.142c12.792,9.131 25.892,18.923 41.613,23.474c8.746,2.621 14.526,3.255 18.032,3.255c2.042,-0 3.776,0.432 3.776,1.728c0,1.526 -1.464,2.16 -6.974,2.16l-25.315,0c-8.746,0 -13.948,0 -20.074,-0.432c-15.72,-1.094 -23.581,-5.876 -36.065,-14.142c-12.792,-8.468 -70.125,-58.699 -76.213,-65.006l-3.198,-3.255l-1.465,-0l0,19.787c0,20.018 0,37.184 0.887,46.544c0.578,6.078 3.198,10.888 10.48,11.752c4.084,0.432 10.48,0.864 14.256,0.864c2.312,-0 3.776,0.662 3.776,1.728c0,1.526 -2.311,2.16 -5.51,2.16c-16.298,0 -34.6,-0.662 -41.882,-0.662c-6.705,-0 -25.007,0.662 -36.643,0.662c-3.776,0 -5.818,-0.662 -5.818,-2.16c-0,-1.095 1.156,-1.728 4.662,-1.728c4.354,-0 7.86,-0.432 10.48,-0.864c5.819,-0.864 7.283,-5.645 8.439,-11.953c1.464,-9.13 1.464,-26.297 1.464,-46.314l-0,-38.278c-0,-33.036 -0,-39.143 -0.578,-46.084c-0.578,-7.402 -2.89,-10.858 -12.523,-12.385c-2.311,-0.432 -7.282,-0.662 -11.328,-0.662c-3.198,-0 -4.932,-0.432 -4.932,-1.959c0,-1.526 2.043,-1.958 6.397,-1.958c15.412,-0 33.752,0.662 40.726,0.662c6.974,0 25.315,-0.662 35.179,-0.662c4.084,-0 6.126,0.432 6.126,1.958c0,1.527 -1.734,1.959 -4.084,1.959c-2.89,-0 -4.662,0.23 -8.13,0.662c-7.86,1.095 -10.172,4.781 -10.75,12.385c-0.578,6.97 -0.578,13.048 -0.578,46.084l0,9.562l-0.116,0.029Z" style="fill:#002f68;fill-rule:nonzero;"/><path d="M1579.11,845.776c-4.662,-1.526 -5.51,-2.592 -5.51,-7.402c0,-11.953 1.156,-25 1.464,-28.485c0.309,-3.255 1.156,-5.645 3.507,-5.645c2.62,-0 2.928,1.958 2.928,3.686c0,2.823 1.156,7.402 2.62,11.089c6.396,16.101 23.581,21.947 41.613,21.947c26.163,0 38.993,-13.277 38.993,-24.798c0,-10.657 -4.354,-20.651 -28.512,-34.793l-13.371,-7.835c-31.98,-18.692 -43.038,-33.929 -43.038,-51.527c-0,-23.906 26.779,-41.101 67.197,-41.101c18.919,0 31.133,2.189 38.685,3.687c2.62,0.432 4.084,1.095 4.084,2.621c0,2.823 -1.156,9.13 -1.156,26.095c0,4.781 -0.886,6.538 -3.198,6.538c-2.042,0 -2.89,-1.296 -2.89,-3.917c0,-1.959 -1.464,-8.698 -7.552,-14.344c-4.354,-4.118 -12.792,-10.656 -31.71,-10.656c-21.539,-0 -34.601,9.36 -34.601,22.408c0,9.994 6.705,17.627 30.825,31.308l8.13,4.579c35.178,19.788 47.701,34.793 47.701,55.445c-0,12.615 -6.396,27.621 -27.357,37.846c-14.526,6.97 -30.825,8.9 -46.237,8.9c-16.876,-0 -29.977,-1.527 -42.461,-5.646l-0.154,0Z" style="fill:#002f68;fill-rule:nonzero;"/><path d="M1726.84,766.196c0,-37.184 26.84,-85.255 98.11,-85.255c59.155,0 95.97,31.539 95.97,81.309c0,49.77 -38.01,89.143 -98.361,89.143c-68.186,-0 -95.719,-46.746 -95.719,-85.226l0,0.029Zm160.821,4.119c-0,-48.705 -30.648,-78.947 -69.602,-78.947c-27.312,-0 -58.432,13.911 -58.432,68.059c0,45.22 27.313,81.107 72.938,81.107c16.614,0 55.127,-7.402 55.127,-70.219l-0.031,-0Z" style="fill:#002f68;fill-rule:nonzero;"/><path d="M1982.95,823.196c0.578,16.965 4.354,22.61 10.172,24.136c4.932,1.297 10.48,1.527 15.142,1.527c3.198,0 4.932,0.432 4.932,1.728c0,1.728 -2.62,2.16 -6.704,2.16c-18.919,0 -30.555,-0.662 -36.065,-0.662c-2.62,-0 -16.298,0.662 -31.402,0.662c-3.776,0 -6.396,-0.23 -6.396,-2.16c-0,-1.296 1.734,-1.728 4.662,-1.728c3.776,0 9.016,-0.23 13.1,-1.094c7.552,-1.729 8.708,-8.036 9.016,-26.959l2.621,-128.718c-0,-4.349 0.886,-7.402 3.776,-7.402c3.198,0 5.818,2.823 10.75,6.74c3.506,2.823 47.701,38.278 90.161,69.788c19.767,14.775 59.068,46.083 64,49.568l1.464,0l-2.928,-97.639c-0.309,-13.278 -2.89,-17.397 -9.903,-19.586c-4.354,-1.296 -11.328,-1.296 -15.412,-1.296c-3.506,0 -4.662,-0.662 -4.662,-1.958c-0,-1.728 3.198,-1.959 7.552,-1.959c15.142,0 29.09,0.663 35.178,0.663c3.198,-0 14.257,-0.663 28.513,-0.663c3.776,0 6.704,0.231 6.704,1.959c0,1.296 -1.734,1.958 -5.24,1.958c-2.89,0 -5.24,0 -8.746,0.663c-8.13,1.728 -10.481,6.307 -10.75,18.491l-3.198,137.214c-0,4.781 -1.156,6.739 -3.776,6.739c-3.199,0 -6.705,-2.39 -9.903,-4.781c-18.34,-13.047 -55.561,-41.533 -85.808,-63.941c-31.71,-23.474 -63.999,-50.663 -69.239,-54.81l-0.886,-0l3.198,91.331l0.077,0.029Z" style="fill:#002f68;fill-rule:nonzero;"/><path d="M793.248,977.115c-12.215,-12.184 -14.565,-21.084 -14.835,-30.876c-0.308,-17.166 20.075,-40.007 70.704,-40.007c14.256,0 27.357,2.189 35.178,4.551c4.932,1.296 4.932,3.053 4.932,5.645c0,7.172 -2.311,24.569 -3.198,27.823c-0.578,3.255 -1.734,3.687 -3.506,3.687c-1.772,-0 -2.042,-0.864 -2.042,-4.119c-0,-5.645 -2.042,-12.615 -8.438,-18.26c-5.818,-5.214 -15.991,-9.793 -32.289,-9.793c-12.214,-0 -31.133,6.308 -31.133,24.799c0,20.449 25.007,37.846 48.279,57.172c9.903,8.497 45.659,32.633 51.207,36.32c5.819,-6.078 13.948,-20.22 13.948,-33.497c0,-3.255 -1.155,-7.172 -5.509,-9.995c-3.776,-2.592 -9.903,-3.254 -14.257,-3.254c-1.734,-0 -3.506,-0.432 -3.506,-1.729c-0,-1.728 2.312,-2.188 4.662,-2.188c6.974,-0 18.61,0.23 34.909,1.526c5.51,0.432 9.902,1.728 9.902,4.349c0,16.734 -11.944,36.953 -28.512,51.527c19.496,11.953 32.597,17.829 40.418,21.314c9.325,4.119 25.315,7.604 31.133,7.604c2.62,-0 4.084,0.23 4.084,1.958c0,1.296 -2.312,1.959 -8.708,1.959l-22.386,-0c-33.175,-0 -43.617,-2.391 -68.662,-16.734c-9.594,6.538 -29.09,19.787 -68.931,19.787c-62.265,-0 -80.876,-29.148 -80.876,-48.042c0,-25.433 29.977,-45.22 47.432,-51.527Zm91.047,72.84c-16.876,-10.858 -44.811,-31.308 -52.363,-37.385c-7.552,-6.077 -26.162,-21.746 -31.132,-27.189c-9.903,5.443 -20.075,15.639 -20.075,33.036c0,27.189 25.584,44.586 55.869,44.586c22.387,-0 41.614,-8.698 47.701,-13.048Z" style="fill:#0071bc;fill-rule:nonzero;"/><path d="M1174.68,978.893c0.886,0 1.734,-0.432 1.734,-1.526l-0,-4.551c-0,-33.036 -0,-39.142 -0.578,-46.083c-0.578,-7.403 -2.89,-10.859 -12.523,-12.385c-2.312,-0.432 -7.282,-0.663 -11.328,-0.663c-3.198,0 -4.932,-0.432 -4.932,-1.958c0,-1.527 2.042,-1.959 6.088,-1.959c15.721,0 34.023,0.662 41.883,0.662c6.974,0 25.314,-0.662 36.642,-0.662c4.085,0 6.127,0.432 6.127,1.959c-0,1.526 -1.734,1.958 -5.24,1.958c-2.312,0 -4.932,0.231 -8.439,0.663c-7.86,1.094 -10.172,4.781 -10.75,12.385c-0.578,6.97 -0.578,13.047 -0.578,46.083l0,38.278c0,20.018 0,37.184 1.465,46.545c0.886,6.077 2.62,10.887 11.328,11.751c4.084,0.432 10.48,0.864 14.834,0.864c3.198,0 4.662,0.663 4.662,1.728c0,1.527 -2.312,2.16 -5.818,2.16c-18.919,0 -37.221,-0.662 -45.389,-0.662c-6.704,-0 -25.006,0.662 -36.373,0.662c-4.084,0 -6.088,-0.662 -6.088,-2.16c0,-1.094 1.156,-1.728 4.662,-1.728c4.354,0 7.861,-0.432 10.481,-0.864c5.818,-0.864 7.282,-5.645 8.438,-11.953c1.464,-9.13 1.464,-26.296 1.464,-46.314l0,-19.125c0,-0.864 -0.886,-1.296 -1.734,-1.296l-111.122,0c-0.886,0 -1.734,0.231 -1.734,1.296l-0,19.125c-0,20.018 -0,37.184 1.464,46.544c0.886,6.078 2.62,10.888 11.328,11.752c4.084,0.432 10.48,0.864 14.834,0.864c3.198,-0 4.663,0.662 4.663,1.728c-0,1.527 -2.312,2.16 -5.819,2.16c-18.918,0 -37.22,-0.662 -45.389,-0.662c-6.704,-0 -25.006,0.662 -36.642,0.662c-3.776,0 -5.818,-0.662 -5.818,-2.16c-0,-1.094 1.155,-1.728 4.662,-1.728c4.354,-0 7.86,-0.432 10.48,-0.864c5.818,-0.864 7.282,-5.645 8.438,-11.953c1.464,-9.13 1.464,-26.297 1.464,-46.314l0,-38.278c0,-33.036 0,-39.143 -0.577,-46.084c-0.578,-7.402 -2.89,-10.858 -12.523,-12.385c-2.312,-0.432 -7.282,-0.662 -11.328,-0.662c-3.198,-0 -4.932,-0.432 -4.932,-1.959c0,-1.526 2.042,-1.958 6.127,-1.958c15.72,-0 34.022,0.662 41.882,0.662c6.974,0 25.315,-0.662 36.643,-0.662c4.084,-0 6.126,0.432 6.126,1.958c0,1.527 -1.734,1.959 -5.24,1.959c-2.312,-0 -4.932,0.23 -8.438,0.662c-7.86,1.095 -10.172,4.781 -10.75,12.385c-0.578,6.97 -0.578,13.048 -0.578,46.084l-0,4.55c-0,1.095 0.886,1.527 1.734,1.527l111.122,-0l-0.115,-0.058Z" style="fill:#002f68;fill-rule:nonzero;"/><path d="M1285.76,976.987c0,-33.036 0,-39.143 -0.578,-46.084c-0.578,-7.402 -2.89,-10.858 -12.522,-12.385c-2.312,-0.432 -7.283,-0.662 -11.328,-0.662c-3.198,-0 -4.932,-0.432 -4.932,-1.959c-0,-1.526 2.042,-1.958 6.396,-1.958c7.86,-0 16.298,0.23 23.581,0.23c7.552,0.23 14.256,0.432 18.34,0.432c9.325,0 67.198,0 72.707,-0.23c5.51,-0.432 10.173,-0.864 12.523,-1.296c1.464,-0.231 3.198,-0.865 4.662,-0.865c1.464,0 1.734,0.865 1.734,1.959c0,1.527 -1.464,4.119 -2.312,14.142c-0.308,2.189 -0.886,11.751 -1.464,14.343c-0.308,1.095 -0.886,2.391 -2.89,2.391c-2.003,0 -2.62,-1.094 -2.62,-3.053c0,-1.527 -0.308,-5.213 -1.734,-7.834c-2.042,-3.917 -4.932,-6.538 -19.496,-7.834c-4.932,-0.432 -35.487,-0.864 -41.305,-0.864c-1.464,-0 -2.042,0.662 -2.042,2.188l-0,55.013c-0,1.526 0.308,2.39 2.042,2.39c6.396,0 39.841,0 46.545,-0.432c6.974,-0.432 11.328,-1.094 13.948,-3.254c2.042,-1.728 3.198,-2.823 4.662,-2.823c1.156,0 2.042,0.432 2.042,1.728c0,1.296 -1.156,4.781 -2.312,15.87c-0.308,4.349 -1.155,13.048 -1.155,14.574c-0,1.728 -0,4.119 -2.621,4.119c-2.042,-0 -2.62,-0.864 -2.62,-1.959c-0.308,-2.16 -0.308,-5.011 -1.156,-7.834c-1.464,-4.349 -5.509,-7.604 -16.298,-8.468c-5.51,-0.432 -34.331,-0.662 -41.305,-0.662c-1.464,-0 -1.734,0.864 -1.734,2.16l0,17.166c0,7.402 -0.308,27.391 0,33.699c0.578,15.006 5.24,18.26 34.909,18.26c7.552,0 19.766,0 27.357,-2.621c7.552,-2.621 11.058,-7.171 13.1,-16.1c0.578,-2.391 1.156,-3.255 3.198,-3.255c2.312,0 2.312,1.728 2.312,3.917c0,5.012 -2.312,19.787 -3.776,24.137c-2.042,5.645 -4.662,5.645 -15.72,5.645c-21.809,-0 -37.837,-0.432 -50.321,-0.663c-12.523,-0.432 -21.539,-0.662 -30.247,-0.662c-3.198,-0 -9.594,-0 -16.568,0.23c-6.705,0 -14.257,0.432 -20.075,0.432c-3.776,0 -5.818,-0.662 -5.818,-2.16c0,-1.094 1.156,-1.728 4.662,-1.728c4.354,0 7.861,-0.432 10.481,-0.864c5.818,-0.864 7.282,-5.645 8.438,-11.953c1.464,-9.13 1.464,-26.296 1.464,-46.314l0,-38.278l-0.154,0.029Z" style="fill:#002f68;fill-rule:nonzero;"/><path d="M1479.38,1044.08c0.578,16.964 4.354,22.61 10.172,24.136c4.932,1.296 10.481,1.527 15.143,1.527c3.198,-0 4.932,0.432 4.932,1.728c-0,1.728 -2.62,2.16 -6.705,2.16c-18.918,-0 -30.554,-0.663 -36.064,-0.663c-2.62,0 -16.299,0.663 -31.403,0.663c-3.776,-0 -6.396,-0.231 -6.396,-2.16c0,-1.296 1.734,-1.728 4.662,-1.728c3.776,-0 9.016,-0.231 13.101,-1.095c7.552,-1.728 8.746,-8.036 9.016,-26.959l2.62,-128.717c-0,-4.349 0.886,-7.402 3.776,-7.402c3.198,-0 5.818,2.823 10.75,6.74c3.506,2.822 47.701,38.278 90.162,69.787c19.766,14.776 59.067,46.084 63.999,49.569l1.464,0l-2.928,-97.64c-0.308,-13.277 -2.89,-17.396 -9.902,-19.585c-4.354,-1.296 -11.328,-1.296 -15.413,-1.296c-3.506,-0 -4.662,-0.663 -4.662,-1.959c0,-1.728 3.198,-1.958 7.552,-1.958c15.143,-0 29.091,0.662 35.179,0.662c3.198,0 14.256,-0.662 28.512,-0.662c3.776,-0 6.705,0.23 6.705,1.958c-0,1.296 -1.734,1.959 -5.24,1.959c-2.929,-0 -5.241,-0 -8.747,0.662c-8.13,1.728 -10.48,6.308 -10.75,18.491l-3.198,137.214c-0,4.781 -1.156,6.74 -3.776,6.74c-3.198,-0 -6.704,-2.391 -9.902,-4.781c-18.341,-13.048 -55.562,-41.533 -85.808,-63.941c-31.711,-23.474 -64,-50.663 -69.24,-54.811l-0.886,0l3.198,91.332l0.077,0.029Z" style="fill:#002f68;fill-rule:nonzero;"/><path d="M1721.75,977.465c0,-33.036 0,-39.142 -0.578,-46.083c-0.578,-7.403 -2.889,-10.859 -12.522,-12.385c-2.312,-0.432 -7.282,-0.663 -11.328,-0.663c-3.198,0 -4.932,-0.432 -4.932,-1.958c-0,-1.527 2.042,-1.959 6.396,-1.959c15.412,-0 33.753,0.662 39.841,0.662c9.902,0 31.98,-0.662 40.996,-0.662c18.341,-0 37.837,1.296 53.519,9.361c8.13,4.118 19.767,15.207 19.767,29.781c-0,16.101 -9.017,30.876 -38.415,48.705c25.892,24.366 45.967,43.722 63.113,57.201c16.298,12.615 28.204,14.142 32.597,14.776c3.198,0.432 5.818,0.662 8.13,0.662c2.312,0 3.506,0.662 3.506,1.728c-0,1.728 -2.042,2.16 -5.51,2.16l-27.626,0c-16.299,0 -23.581,-1.094 -31.133,-4.118c-12.523,-5.012 -23.581,-15.208 -39.841,-31.971c-11.636,-11.953 -25.006,-26.757 -28.782,-30.012c-1.464,-1.296 -3.198,-1.526 -5.24,-1.526l-25.315,-0.432c-1.464,-0 -2.312,0.432 -2.312,1.728l0,3.053c0,20.219 0,37.414 1.464,46.544c0.886,6.308 2.62,11.089 11.328,11.953c4.354,0.432 10.75,0.864 14.257,0.864c2.311,0 3.506,0.663 3.506,1.728c-0,1.527 -2.042,2.161 -5.818,2.161c-16.877,-0 -38.415,-0.663 -42.769,-0.663c-5.51,0 -23.851,0.663 -35.487,0.663c-3.776,-0 -5.818,-0.663 -5.818,-2.161c-0,-1.094 1.156,-1.728 4.662,-1.728c4.354,0 7.86,-0.432 10.48,-0.864c5.819,-0.864 7.283,-5.645 8.439,-11.953c1.464,-9.13 1.464,-26.296 1.464,-46.314l-0,-38.278l-0.039,0Zm34.331,17.166c0,2.391 0.578,3.255 2.62,3.917c6.127,1.527 14.835,2.189 22.117,2.189c11.636,0 15.412,-0.864 20.652,-3.686c8.747,-4.782 17.146,-14.776 17.146,-32.633c0,-30.876 -27.356,-39.805 -44.503,-39.805c-7.282,-0 -12.522,0.23 -15.412,0.864c-2.042,0.432 -2.62,1.296 -2.62,3.053l0,66.101Z" style="fill:#002f68;fill-rule:nonzero;"/><path d="M1975.35,1022.71c0,-11.752 -2.928,-16.533 -6.704,-22.841c-2.042,-3.485 -41.035,-51.325 -51.207,-62.616c-7.283,-8.035 -14.565,-13.479 -20.075,-15.87c-3.776,-1.526 -8.746,-2.822 -12.214,-2.822c-2.312,-0 -4.354,-0.432 -4.354,-1.959c-0,-1.296 2.042,-1.958 5.51,-1.958c5.24,-0 27.048,0.662 36.643,0.662c6.126,0 18.032,-0.662 31.132,-0.662c2.929,-0 4.354,0.662 4.354,1.958c0,1.296 -2.042,1.527 -6.396,2.391c-2.62,0.432 -4.084,2.189 -4.084,3.917c-0,1.728 1.464,4.349 3.506,7.402c4.084,6.538 44.811,58.929 49.435,65.007c2.928,-5.214 39.571,-53.054 43.617,-59.794c2.89,-4.781 4.084,-8.468 4.084,-11.319c-0,-2.189 -1.156,-4.58 -6.126,-5.444c-2.62,-0.432 -5.241,-0.864 -5.241,-2.189c0,-1.526 1.465,-1.958 4.932,-1.958c9.594,-0 18.919,0.662 27.357,0.662c6.396,0 25.584,-0.662 31.133,-0.662c3.198,-0 5.24,0.432 5.24,1.728c0,1.526 -2.312,2.189 -5.51,2.189c-2.89,-0 -8.438,0.864 -12.792,2.621c-6.126,2.16 -9.324,4.781 -15.721,10.657c-9.594,8.698 -50.321,59.793 -55.561,69.154c-4.354,7.834 -4.354,14.574 -4.354,21.746l0,17.828c0,3.485 0,12.616 0.887,21.746c0.577,6.308 3.198,11.089 11.944,11.953c4.084,0.432 10.48,0.864 14.526,0.864c3.198,-0 4.662,0.662 4.662,1.728c0,1.527 -2.312,2.16 -6.126,2.16c-18.341,0 -36.643,-0.662 -44.503,-0.662c-7.282,-0 -25.584,0.662 -36.373,0.662c-4.084,0 -6.396,-0.432 -6.396,-2.16c-0,-1.094 1.464,-1.728 4.662,-1.728c4.084,-0 7.552,-0.432 10.172,-0.864c5.818,-0.864 8.439,-5.645 9.016,-11.953c0.887,-9.13 0.887,-18.261 0.887,-21.746l-0,-17.828l0.038,-0Z" style="fill:#002f68;fill-rule:nonzero;"/><g><path d="M807.012,1141.06c6.781,-0 12.561,1.008 17.3,3.053c4.778,2.045 8.361,4.81 10.75,8.295c2.389,3.485 3.622,7.402 3.622,11.751c-0,4.349 -1.195,8.267 -3.622,11.78c-2.389,3.543 -6.011,6.308 -10.75,8.353c-4.778,2.045 -10.558,3.053 -17.3,3.053l-29.014,0l0,23.676l-7.899,-0l0,-69.961l36.913,-0Zm-0.27,40.669c7.822,-0 13.794,-1.613 17.84,-4.839c4.045,-3.226 6.087,-7.431 6.087,-12.644c0,-5.213 -2.042,-9.419 -6.087,-12.702c-4.046,-3.255 -10.018,-4.896 -17.84,-4.896l-28.744,-0l0,35.081l28.744,-0Z" style="fill-rule:nonzero;"/><path d="M973.384,1211.02l-8.707,-0l-10.173,-16.994l-55.33,0l-10.172,16.994l-8.669,-0l41.96,-69.961l9.093,-0l41.96,69.961l0.038,-0Zm-46.66,-64.057c-2.312,4.263 -6.011,10.6 -11.097,18.981l-13.255,22.581l48.78,0l-13.37,-22.783c-0.27,-0.46 -0.578,-1.008 -0.925,-1.612c-0.346,-0.605 -0.732,-1.239 -1.078,-1.901c-4.085,-6.798 -7.052,-11.896 -8.824,-15.294l-0.27,-0l0.039,0.028Z" style="fill-rule:nonzero;"/><path d="M1094.63,1211.02l-31.942,-26.182l-20.845,0l0,26.182l-8.014,-0l-0,-69.961l36.912,-0c6.165,-0 11.559,0.893 16.26,2.707c4.701,1.815 8.284,4.349 10.827,7.633c2.543,3.283 3.815,7.114 3.815,11.434c-0,6.279 -2.62,11.406 -7.822,15.381c-5.202,3.975 -12.176,6.192 -20.922,6.596l32.096,26.181l-10.288,-0l-0.077,0.029Zm-7.282,-59.851c-4.162,-2.938 -9.787,-4.407 -16.915,-4.407l-28.59,-0l0,32.489l28.744,-0c7.051,-0 12.638,-1.469 16.761,-4.407c4.161,-2.938 6.203,-6.855 6.203,-11.78c0,-4.925 -2.08,-8.958 -6.203,-11.895Z" style="fill-rule:nonzero;"/><path d="M1164.18,1141.06l74.48,-0l-0,5.501l-33.291,0l0,64.46l-7.899,-0l0,-64.46l-33.29,0l-0,-5.501Z" style="fill-rule:nonzero;"/><path d="M1308.55,1211.02l0,-69.961l8.169,-0l52.016,53.457l6.82,7.085l0.27,-0.115c-0.193,-1.987 -0.27,-3.888 -0.27,-5.703l0,-54.753l7.899,0l-0,69.961l-7.899,-0l-52.286,-53.457c-3.66,-3.744 -5.895,-6.106 -6.666,-7.086l-0.27,0.116c0.078,1.008 0.116,2.909 0.116,5.703l0,54.753l-7.899,-0Z" style="fill-rule:nonzero;"/><path d="M1473.12,1178.41l-0,26.902l54.675,-0l-0,5.703l-62.574,-0l-0,-69.961l61.11,-0l-0,5.588l-53.211,-0l-0,26.181l50.552,-0l-0,5.587l-50.552,0Z" style="fill-rule:nonzero;"/><path d="M1664.81,1211.02l-31.942,-26.182l-20.845,0l-0,26.182l-8.015,-0l0,-69.961l36.913,-0c6.165,-0 11.559,0.893 16.26,2.707c4.7,1.815 8.284,4.349 10.827,7.633c2.543,3.283 3.814,7.114 3.814,11.434c0,6.279 -2.62,11.406 -7.821,15.381c-5.202,3.975 -12.176,6.192 -20.923,6.596l32.096,26.181l-10.287,-0l-0.077,0.029Zm-7.283,-59.851c-4.161,-2.938 -9.786,-4.407 -16.915,-4.407l-28.589,-0l-0,32.489l28.744,-0c7.051,-0 12.638,-1.469 16.76,-4.407c4.162,-2.938 6.204,-6.855 6.204,-11.78c-0,-4.925 -2.081,-8.958 -6.204,-11.895Z" style="fill-rule:nonzero;"/><path d="M1741.02,1203.62l4.008,-4.694c9.902,5.126 20.113,7.69 30.631,7.69c7.745,-0 13.987,-1.239 18.726,-3.744c4.74,-2.506 7.09,-5.934 7.09,-10.34c-0,-2.737 -0.771,-5.012 -2.273,-6.798c-1.503,-1.786 -4.162,-3.341 -7.938,-4.637c-3.776,-1.296 -9.17,-2.477 -16.106,-3.543c-7.667,-1.123 -13.755,-2.505 -18.263,-4.147c-4.508,-1.642 -7.783,-3.658 -9.902,-6.049c-2.12,-2.39 -3.121,-5.328 -3.121,-8.784c-0,-3.716 1.387,-7.028 4.199,-9.879c2.813,-2.852 6.666,-5.07 11.56,-6.596c4.893,-1.527 10.441,-2.304 16.568,-2.304c10.788,-0 20.421,2.131 28.859,6.394l-4.277,4.493c-7.128,-3.543 -15.335,-5.3 -24.582,-5.3c-7.128,0 -12.985,1.181 -17.57,3.543c-4.585,2.362 -6.897,5.53 -6.897,9.533c-0,2.477 0.809,4.522 2.466,6.164c1.657,1.642 4.315,3.053 7.937,4.234c3.661,1.21 8.747,2.304 15.258,3.284c8.092,1.267 14.488,2.793 19.111,4.55c4.624,1.757 7.938,3.889 9.98,6.394c2.042,2.506 3.005,5.617 3.005,9.332c0,6.135 -3.121,10.974 -9.363,14.488c-6.242,3.543 -14.449,5.299 -24.582,5.299c-12.677,0 -24.159,-2.851 -34.485,-8.611l-0.039,0.028Z" style="fill-rule:nonzero;"/><path d="M1904.31,1145.01l0,64.344l52.556,0l0,5.588l-60.416,-0l0,-69.961l7.899,0l-0.039,0.029Z" style="fill-rule:nonzero;"/><path d="M2014.62,1136.45c6.781,-0 12.561,1.008 17.3,3.053c4.778,2.045 8.361,4.81 10.75,8.295c2.389,3.485 3.622,7.402 3.622,11.751c0,4.349 -1.194,8.267 -3.622,11.78c-2.389,3.543 -6.011,6.308 -10.75,8.353c-4.778,2.045 -10.557,3.053 -17.3,3.053l-29.014,0l0,23.676l-7.898,-0l-0,-69.961l36.912,-0Zm-0.27,40.669c7.822,-0 13.794,-1.613 17.84,-4.839c4.046,-3.226 6.088,-7.431 6.088,-12.644c-0,-5.213 -2.042,-9.419 -6.088,-12.702c-4.046,-3.255 -10.018,-4.896 -17.84,-4.896l-28.744,-0l0,35.081l28.744,-0Z" style="fill-rule:nonzero;"/></g><path d="M65.067,376.455l299.379,-253.899l0,787.861l-299.379,244.341l-0,-778.303Z" style="fill:#0071bc;fill-rule:nonzero;"/><path d="M705.713,563.674l-297.038,-253.753l-0,787.411l297.038,244.202l-0,-777.86Z" style="fill:#002f68;fill-rule:nonzero;"/><g><path d="M85.121,881.971c0.833,1.917 2.083,4.625 3.875,7.75c10.375,18.084 33.167,40.125 65.75,42.542c4.542,0.333 34.75,2.083 59.542,-20.125c12.125,-10.833 18.041,-23.042 20.875,-30.167c-17.125,6.209 -39.459,10.042 -75.042,12.375c-30,1.959 -58.958,-6.541 -75.042,-12.375l0.042,0Z" style="fill:#fff;fill-rule:nonzero;"/><path d="M589.064,660.32c0,10.679 5.837,19.589 13.635,21.801l0,5.75l-62.092,182.812l6.67,3.792l55.422,-163.16l0,168.405l7.259,-0l-0,-167.773l55.177,162.465l6.67,-3.792l-61.847,-182.117l-0,-6.382c7.798,-2.149 13.684,-11.059 13.684,-21.801c-0,-5.877 -1.766,-11.122 -4.66,-15.103l42.965,-1.011l-0.196,-14.723l-147.531,3.475c-17.853,-22.496 -62.779,-69.131 -129.236,-69.131l-0.392,-0c-64.888,0.19 -109.324,45.182 -126.932,66.793l-151.993,-2.338l-0.147,14.724l41.542,0.631c-3.581,4.108 -5.886,9.985 -5.886,16.683c0,10.679 5.837,19.589 13.635,21.801l0,5.75l-62.092,182.812l6.67,3.792l55.422,-163.16l0,168.405l7.308,-0l-0,-167.773l55.177,162.465l6.67,-3.792l-61.847,-182.117l-0,-6.382c7.798,-2.149 13.684,-11.059 13.684,-21.801c-0,-6.446 -2.158,-12.259 -5.592,-16.303l92.06,1.39l1.716,-2.149c15.352,-19.399 57.777,-64.581 120.703,-64.771l0.392,0c64.397,0 107.362,46.825 122.86,67.046l1.717,2.212l83.721,-1.959c-2.599,3.918 -4.267,8.91 -4.267,14.471l-0.049,0.063Z" style="fill:#fff;fill-rule:nonzero;"/><path d="M605.259,892.608c-34.189,2.248 -67.192,-7.509 -85.521,-14.205c0.95,2.2 2.374,5.309 4.416,8.896c11.824,20.757 37.798,46.058 74.932,48.832c5.176,0.382 39.603,2.391 67.857,-23.101c13.818,-12.435 20.561,-26.449 23.79,-34.627c-19.517,7.126 -44.969,11.526 -85.521,14.205l0.047,-0Z" style="fill:#fff;fill-rule:nonzero;"/></g></svg>