<?xml version="1.0" encoding="UTF-8" standalone="no"?>
<!DOCTYPE svg PUBLIC "-//W3C//DTD SVG 1.1//EN" "http://www.w3.org/Graphics/SVG/1.1/DTD/svg11.dtd">
<svg width="100%" height="100%" viewBox="0 0 501 312" version="1.1" xmlns="http://www.w3.org/2000/svg" xmlns:xlink="http://www.w3.org/1999/xlink" xml:space="preserve" xmlns:serif="http://www.serif.com/" style="fill-rule:evenodd;clip-rule:evenodd;stroke-linejoin:round;stroke-miterlimit:2;">
    <g id="Artboard1" transform="matrix(1.01236,0,0,1.08577,-221.602,-242.376)">
        <rect x="218.896" y="223.23" width="494.809" height="286.558" style="fill:none;"/>
        <g transform="matrix(0.800341,0,0,0.560857,72.5518,173.238)">
            <path d="M410.11,343.67C410.11,332.2 410.11,330.08 409.96,327.67C409.81,325.1 409.21,323.9 406.71,323.37C406.11,323.22 404.82,323.14 403.77,323.14C402.94,323.14 402.49,322.99 402.49,322.46C402.49,321.93 403.02,321.78 404.15,321.78C408.15,321.78 412.91,322.01 415.02,322.01C417.36,322.01 422.12,321.78 426.65,321.78C436.09,321.78 448.69,321.78 456.92,330.39C460.69,334.32 464.24,340.58 464.24,349.57C464.24,359.08 460.24,366.33 456.01,370.63C452.54,374.18 444.69,379.54 430.72,379.54C428,379.54 424.91,379.31 422.04,379.09C419.17,378.86 416.53,378.64 414.64,378.64C413.81,378.64 412.15,378.64 410.34,378.72C408.6,378.72 406.64,378.87 405.13,378.87C404.15,378.87 403.62,378.64 403.62,378.12C403.62,377.74 403.92,377.52 404.83,377.52C405.96,377.52 406.87,377.37 407.55,377.22C409.06,376.92 409.44,375.26 409.74,373.07C410.12,369.9 410.12,363.94 410.12,356.99L410.12,343.7L410.11,343.67ZM419.55,351.97C419.55,359.97 419.63,365.79 419.7,367.22C419.78,369.11 419.93,372.13 420.53,372.96C421.51,374.4 424.46,375.98 430.42,375.98C438.12,375.98 443.25,374.47 447.78,370.54C452.61,366.39 454.12,359.52 454.12,351.74C454.12,342.15 450.12,335.96 446.87,332.87C439.92,326.23 431.32,325.32 425.43,325.32C423.92,325.32 421.13,325.55 420.52,325.85C419.84,326.15 419.61,326.53 419.61,327.36C419.53,329.93 419.53,336.49 419.53,342.46L419.53,351.97L419.55,351.97Z" style="fill:rgb(0,47,104);fill-rule:nonzero;"/>
        </g>
        <g transform="matrix(0.800341,0,0,0.560857,69.5374,173.238)">
            <path d="M480.03,343.67C480.03,332.2 480.03,330.08 479.88,327.67C479.73,325.1 478.97,323.82 477.31,323.44C476.48,323.21 475.5,323.14 474.59,323.14C473.84,323.14 473.38,322.99 473.38,322.38C473.38,321.93 473.98,321.78 475.19,321.78C478.06,321.78 482.81,322.01 485,322.01C486.89,322.01 491.34,321.78 494.21,321.78C495.19,321.78 495.8,321.93 495.8,322.38C495.8,322.98 495.35,323.14 494.59,323.14C493.83,323.14 493.23,323.22 492.32,323.37C490.28,323.75 489.68,325.03 489.53,327.67C489.38,330.09 489.38,332.2 489.38,343.67L489.38,356.96C489.38,364.28 489.38,370.25 489.68,373.49C489.91,375.53 490.43,376.89 492.7,377.19C493.76,377.34 495.42,377.49 496.55,377.49C497.38,377.49 497.76,377.72 497.76,378.09C497.76,378.62 497.16,378.84 496.33,378.84C491.35,378.84 486.59,378.61 484.55,378.61C482.81,378.61 478.06,378.84 475.04,378.84C474.06,378.84 473.53,378.61 473.53,378.09C473.53,377.71 473.83,377.49 474.74,377.49C475.87,377.49 476.78,377.34 477.46,377.19C478.97,376.89 479.42,375.6 479.65,373.42C480.03,370.25 480.03,364.28 480.03,356.96L480.03,343.67Z" style="fill:rgb(0,47,104);fill-rule:nonzero;"/>
        </g>
        <g transform="matrix(0.740669,0,0,0.560857,98.515,172.685)">
            <path d="M514.53,371.68C507.13,365.19 505.17,356.73 505.17,349.41C505.17,344.28 506.75,335.37 514,328.72C519.44,323.74 526.61,320.72 537.86,320.72C542.54,320.72 545.33,321.02 548.81,321.48C551.68,321.86 554.09,322.54 556.36,322.76C557.19,322.84 557.49,323.21 557.49,323.67C557.49,324.27 557.26,325.18 557.11,327.82C556.96,330.31 557.03,334.46 556.88,335.97C556.8,337.1 556.65,337.71 555.97,337.71C555.37,337.71 555.22,337.11 555.22,336.05C555.14,333.71 554.16,331.07 552.28,329.1C549.79,326.46 543.9,324.42 536.95,324.42C530.38,324.42 526.08,326.08 522.76,329.1C517.25,334.16 515.81,341.33 515.81,348.65C515.81,366.62 529.47,375.53 539.59,375.53C546.31,375.53 550.39,374.78 553.41,371.3C554.69,369.87 555.68,367.68 555.98,366.32C556.21,365.11 556.36,364.81 556.96,364.81C557.49,364.81 557.64,365.34 557.64,365.94C557.64,366.85 556.73,373.42 555.98,375.98C555.6,377.26 555.3,377.64 554.02,378.17C551,379.38 545.26,379.91 540.43,379.91C530.09,379.91 521.41,377.64 514.53,371.68Z" style="fill:rgb(0,47,104);fill-rule:nonzero;"/>
        </g>
        <g transform="matrix(0.800341,0,0,0.560857,63.3101,173.556)">
            <path d="M583.01,346.99L583.39,346.99C585.96,344.2 596.98,332.95 599.17,330.38C601.28,327.89 602.94,326 602.94,324.72C602.94,323.89 602.64,323.36 601.88,323.21C601.2,323.06 600.9,322.91 600.9,322.45C600.9,321.92 601.28,321.77 602.11,321.77C603.7,321.77 607.85,322 609.89,322C612.23,322 616.38,321.77 618.72,321.77C619.47,321.77 620,321.92 620,322.45C620,322.98 619.62,323.13 618.87,323.13C617.81,323.13 615.93,323.43 614.49,323.96C612.15,324.86 609.58,326.45 606.34,329.62C604,331.89 592.6,343.21 590.03,345.93C592.75,349.48 607.55,365.41 610.49,368.2C613.81,371.37 617.21,374.77 621.29,376.35C623.56,377.26 625.06,377.48 625.97,377.48C626.5,377.48 626.95,377.63 626.95,378.08C626.95,378.61 626.57,378.83 625.14,378.83L618.57,378.83C616.3,378.83 614.95,378.83 613.36,378.68C609.28,378.3 607.24,376.64 604,373.77C600.68,370.83 585.8,353.39 584.22,351.2L583.39,350.07L583.01,350.07L583.01,356.94C583.01,363.89 583.01,369.85 583.24,373.1C583.39,375.21 584.07,376.88 585.96,377.18C587.02,377.33 588.68,377.48 589.66,377.48C590.26,377.48 590.64,377.71 590.64,378.08C590.64,378.61 590.04,378.83 589.21,378.83C584.98,378.83 580.23,378.6 578.34,378.6C576.6,378.6 571.85,378.83 568.83,378.83C567.85,378.83 567.32,378.6 567.32,378.08C567.32,377.7 567.62,377.48 568.53,377.48C569.66,377.48 570.57,377.33 571.25,377.18C572.76,376.88 573.14,375.22 573.44,373.03C573.82,369.86 573.82,363.9 573.82,356.95L573.82,343.66C573.82,332.19 573.82,330.07 573.67,327.66C573.52,325.09 572.92,323.89 570.42,323.36C569.82,323.21 568.53,323.13 567.48,323.13C566.65,323.13 566.2,322.98 566.2,322.45C566.2,321.92 566.73,321.77 567.86,321.77C571.86,321.77 576.62,322 578.43,322C580.24,322 585,321.77 587.56,321.77C588.62,321.77 589.15,321.92 589.15,322.45C589.15,322.98 588.7,323.13 588.09,323.13C587.34,323.13 586.88,323.21 585.98,323.36C583.94,323.74 583.34,325.02 583.19,327.66C583.04,330.08 583.04,332.19 583.04,343.66L583.04,346.98L583.01,346.99Z" style="fill:rgb(0,47,104);fill-rule:nonzero;"/>
        </g>
        <g transform="matrix(0.800341,0,0,0.560857,66.9409,173.238)">
            <path d="M628.01,377.94C626.8,377.41 626.58,377.04 626.58,375.37C626.58,371.22 626.88,366.69 626.96,365.48C627.04,364.35 627.26,363.52 627.87,363.52C628.55,363.52 628.63,364.2 628.63,364.8C628.63,365.78 628.93,367.37 629.31,368.65C630.97,374.24 635.43,376.27 640.11,376.27C646.9,376.27 650.23,371.66 650.23,367.66C650.23,363.96 649.1,360.49 642.83,355.58L639.36,352.86C631.06,346.37 628.19,341.08 628.19,334.97C628.19,326.67 635.14,320.7 645.63,320.7C650.54,320.7 653.71,321.46 655.67,321.98C656.35,322.13 656.73,322.36 656.73,322.89C656.73,323.87 656.43,326.06 656.43,331.95C656.43,333.61 656.2,334.22 655.6,334.22C655.07,334.22 654.85,333.77 654.85,332.86C654.85,332.18 654.47,329.84 652.89,327.88C651.76,326.45 649.57,324.18 644.66,324.18C639.07,324.18 635.68,327.43 635.68,331.96C635.68,335.43 637.42,338.08 643.68,342.83L645.79,344.42C654.92,351.29 658.17,356.5 658.17,363.67C658.17,368.05 656.51,373.26 651.07,376.81C647.3,379.23 643.07,379.9 639.07,379.9C634.69,379.9 631.29,379.37 628.05,377.94L628.01,377.94Z" style="fill:rgb(0,47,104);fill-rule:nonzero;"/>
        </g>
        <g transform="matrix(0.653589,0,0,0.560857,163.729,173.238)">
            <path d="M667.88,350.31C667.88,337.4 676.41,320.71 699.06,320.71C717.86,320.71 729.56,331.66 729.56,348.94C729.56,366.22 717.48,379.89 698.3,379.89C676.63,379.89 667.88,363.66 667.88,350.3L667.88,350.31ZM718.99,351.74C718.99,334.83 709.25,324.33 696.87,324.33C688.19,324.33 678.3,329.16 678.3,347.96C678.3,363.66 686.98,376.12 701.48,376.12C706.76,376.12 719,373.55 719,351.74L718.99,351.74Z" style="fill:rgb(0,47,104);fill-rule:nonzero;"/>
        </g>
        <g transform="matrix(0.800341,0,0,0.560857,53.5351,174.091)">
            <path d="M749.57,368.58C749.72,374.47 750.7,376.43 752.21,376.96C753.49,377.41 754.93,377.49 756.14,377.49C756.97,377.49 757.42,377.64 757.42,378.09C757.42,378.69 756.74,378.84 755.68,378.84C750.77,378.84 747.75,378.61 746.32,378.61C745.64,378.61 742.09,378.84 738.17,378.84C737.19,378.84 736.51,378.76 736.51,378.09C736.51,377.64 736.96,377.49 737.72,377.49C738.7,377.49 740.06,377.41 741.12,377.11C743.08,376.51 743.38,374.32 743.46,367.75L744.14,323.06C744.14,321.55 744.37,320.49 745.12,320.49C745.95,320.49 746.63,321.47 747.91,322.83C748.82,323.81 760.29,336.12 771.31,347.06C776.44,352.19 786.64,363.06 787.92,364.27L788.3,364.27L787.54,330.37C787.46,325.76 786.79,324.33 784.97,323.57C783.84,323.12 782.03,323.12 780.97,323.12C780.06,323.12 779.76,322.89 779.76,322.44C779.76,321.84 780.59,321.76 781.72,321.76C785.65,321.76 789.27,321.99 790.85,321.99C791.68,321.99 794.55,321.76 798.25,321.76C799.23,321.76 799.99,321.84 799.99,322.44C799.99,322.89 799.54,323.12 798.63,323.12C797.88,323.12 797.27,323.12 796.36,323.35C794.25,323.95 793.64,325.54 793.57,329.77L792.74,377.41C792.74,379.07 792.44,379.75 791.76,379.75C790.93,379.75 790.02,378.92 789.19,378.09C784.43,373.56 774.77,363.67 766.92,355.89C758.69,347.74 750.31,338.3 748.95,336.86L748.72,336.86L749.55,368.57L749.57,368.58Z" style="fill:rgb(0,47,104);fill-rule:nonzero;"/>
        </g>
        <g transform="matrix(0.800341,0,0,0.560857,72.5518,173.238)">
            <path d="M414.42,423.54C411.25,419.31 410.64,416.22 410.57,412.82C410.49,406.86 415.78,398.93 428.92,398.93C432.62,398.93 436.02,399.69 438.05,400.51C439.33,400.96 439.33,401.57 439.33,402.47C439.33,404.96 438.73,411 438.5,412.13C438.35,413.26 438.05,413.41 437.59,413.41C437.13,413.41 437.06,413.11 437.06,411.98C437.06,410.02 436.53,407.6 434.87,405.64C433.36,403.83 430.72,402.24 426.49,402.24C423.32,402.24 418.41,404.43 418.41,410.85C418.41,417.95 424.9,423.99 430.94,430.7C433.51,433.65 442.79,442.03 444.23,443.31C445.74,441.2 447.85,436.29 447.85,431.68C447.85,430.55 447.55,429.19 446.42,428.21C445.44,427.31 443.85,427.08 442.72,427.08C442.27,427.08 441.81,426.93 441.81,426.48C441.81,425.88 442.41,425.72 443.02,425.72C444.83,425.72 447.85,425.8 452.08,426.25C453.51,426.4 454.65,426.85 454.65,427.76C454.65,433.57 451.55,440.59 447.25,445.65C452.31,449.8 455.71,451.84 457.74,453.05C460.16,454.48 464.31,455.69 465.82,455.69C466.5,455.69 466.88,455.77 466.88,456.37C466.88,456.82 466.28,457.05 464.62,457.05L458.81,457.05C450.2,457.05 447.49,456.22 440.99,451.24C438.5,453.51 433.44,458.11 423.1,458.11C406.94,458.11 402.11,447.99 402.11,441.43C402.11,432.6 409.89,425.73 414.42,423.54ZM438.05,448.83C433.67,445.06 426.42,437.96 424.46,435.85C422.5,433.74 417.67,428.3 416.38,426.41C413.81,428.3 411.17,431.84 411.17,437.88C411.17,447.32 417.81,453.36 425.67,453.36C431.48,453.36 436.47,450.34 438.05,448.83Z" style="fill:rgb(0,113,188);fill-rule:nonzero;"/>
        </g>
        <g transform="matrix(0.800341,0,0,0.560857,58.0456,173.332)">
            <path d="M534.16,423.99C534.39,423.99 534.61,423.84 534.61,423.46L534.61,421.88C534.61,410.41 534.61,408.29 534.46,405.88C534.31,403.31 533.71,402.11 531.21,401.58C530.61,401.43 529.32,401.35 528.27,401.35C527.44,401.35 526.99,401.2 526.99,400.67C526.99,400.14 527.52,399.99 528.57,399.99C532.65,399.99 537.4,400.22 539.44,400.22C541.25,400.22 546.01,399.99 548.95,399.99C550.01,399.99 550.54,400.14 550.54,400.67C550.54,401.2 550.09,401.35 549.18,401.35C548.58,401.35 547.9,401.43 546.99,401.58C544.95,401.96 544.35,403.24 544.2,405.88C544.05,408.3 544.05,410.41 544.05,421.88L544.05,435.17C544.05,442.12 544.05,448.08 544.43,451.33C544.66,453.44 545.11,455.11 547.37,455.41C548.43,455.56 550.09,455.71 551.22,455.71C552.05,455.71 552.43,455.94 552.43,456.31C552.43,456.84 551.83,457.06 550.92,457.06C546.01,457.06 541.26,456.83 539.14,456.83C537.4,456.83 532.65,457.06 529.7,457.06C528.64,457.06 528.12,456.83 528.12,456.31C528.12,455.93 528.42,455.71 529.33,455.71C530.46,455.71 531.37,455.56 532.05,455.41C533.56,455.11 533.94,453.45 534.24,451.26C534.62,448.09 534.62,442.13 534.62,435.18L534.62,428.54C534.62,428.24 534.39,428.09 534.17,428.09L505.33,428.09C505.1,428.09 504.88,428.17 504.88,428.54L504.88,435.18C504.88,442.13 504.88,448.09 505.26,451.34C505.49,453.45 505.94,455.12 508.2,455.42C509.26,455.57 510.92,455.72 512.05,455.72C512.88,455.72 513.26,455.95 513.26,456.32C513.26,456.85 512.66,457.07 511.75,457.07C506.84,457.07 502.09,456.84 499.97,456.84C498.23,456.84 493.48,457.07 490.46,457.07C489.48,457.07 488.95,456.84 488.95,456.32C488.95,455.94 489.25,455.72 490.16,455.72C491.29,455.72 492.2,455.57 492.88,455.42C494.39,455.12 494.77,453.46 495.07,451.27C495.45,448.1 495.45,442.14 495.45,435.19L495.45,421.9C495.45,410.43 495.45,408.31 495.3,405.9C495.15,403.33 494.55,402.13 492.05,401.6C491.45,401.45 490.16,401.37 489.11,401.37C488.28,401.37 487.83,401.22 487.83,400.69C487.83,400.16 488.36,400.01 489.42,400.01C493.5,400.01 498.25,400.24 500.29,400.24C502.1,400.24 506.86,400.01 509.8,400.01C510.86,400.01 511.39,400.16 511.39,400.69C511.39,401.22 510.94,401.37 510.03,401.37C509.43,401.37 508.75,401.45 507.84,401.6C505.8,401.98 505.2,403.26 505.05,405.9C504.9,408.32 504.9,410.43 504.9,421.9L504.9,423.48C504.9,423.86 505.13,424.01 505.35,424.01L534.19,424.01L534.16,423.99Z" style="fill:rgb(0,47,104);fill-rule:nonzero;"/>
        </g>
        <g transform="matrix(0.800341,0,0,0.560857,53.3781,174.145)">
            <path d="M568.82,421.88C568.82,410.41 568.82,408.29 568.67,405.88C568.52,403.31 567.92,402.11 565.42,401.58C564.82,401.43 563.53,401.35 562.48,401.35C561.65,401.35 561.2,401.2 561.2,400.67C561.2,400.14 561.73,399.99 562.86,399.99C564.9,399.99 567.09,400.07 568.98,400.07C570.94,400.15 572.68,400.22 573.74,400.22C576.16,400.22 591.18,400.22 592.61,400.14C594.04,399.99 595.25,399.84 595.86,399.69C596.24,399.61 596.69,399.39 597.07,399.39C597.45,399.39 597.52,399.69 597.52,400.07C597.52,400.6 597.14,401.5 596.92,404.98C596.84,405.74 596.69,409.06 596.54,409.96C596.46,410.34 596.31,410.79 595.79,410.79C595.27,410.79 595.11,410.41 595.11,409.73C595.11,409.2 595.03,407.92 594.66,407.01C594.13,405.65 593.38,404.74 589.6,404.29C588.32,404.14 580.39,403.99 578.88,403.99C578.5,403.99 578.35,404.22 578.35,404.75L578.35,423.85C578.35,424.38 578.43,424.68 578.88,424.68C580.54,424.68 589.22,424.68 590.96,424.53C592.77,424.38 593.9,424.15 594.58,423.4C595.11,422.8 595.41,422.42 595.79,422.42C596.09,422.42 596.32,422.57 596.32,423.02C596.32,423.47 596.02,424.68 595.72,428.53C595.64,430.04 595.42,433.06 595.42,433.59C595.42,434.19 595.42,435.02 594.74,435.02C594.21,435.02 594.06,434.72 594.06,434.34C593.98,433.59 593.98,432.6 593.76,431.62C593.38,430.11 592.33,428.98 589.53,428.68C588.1,428.53 580.62,428.45 578.81,428.45C578.43,428.45 578.36,428.75 578.36,429.2L578.36,435.16C578.36,437.73 578.28,444.67 578.36,446.86C578.51,452.07 579.72,453.2 587.42,453.2C589.38,453.2 592.55,453.2 594.52,452.29C596.48,451.38 597.39,449.8 597.92,446.7C598.07,445.87 598.22,445.57 598.75,445.57C599.35,445.57 599.35,446.17 599.35,446.93C599.35,448.67 598.75,453.8 598.37,455.31C597.84,457.27 597.16,457.27 594.29,457.27C588.63,457.27 584.47,457.12 581.23,457.04C577.98,456.89 575.64,456.81 573.38,456.81C572.55,456.81 570.89,456.81 569.08,456.89C567.34,456.89 565.38,457.04 563.87,457.04C562.89,457.04 562.36,456.81 562.36,456.29C562.36,455.91 562.66,455.69 563.57,455.69C564.7,455.69 565.61,455.54 566.29,455.39C567.8,455.09 568.18,453.43 568.48,451.24C568.86,448.07 568.86,442.11 568.86,435.16L568.86,421.87L568.82,421.88Z" style="fill:rgb(0,47,104);fill-rule:nonzero;"/>
        </g>
        <g transform="matrix(0.800341,0,0,0.560857,52.0273,173.238)">
            <path d="M620.76,446.79C620.91,452.68 621.89,454.64 623.4,455.17C624.68,455.62 626.12,455.7 627.33,455.7C628.16,455.7 628.61,455.85 628.61,456.3C628.61,456.9 627.93,457.05 626.87,457.05C621.96,457.05 618.94,456.82 617.51,456.82C616.83,456.82 613.28,457.05 609.36,457.05C608.38,457.05 607.7,456.97 607.7,456.3C607.7,455.85 608.15,455.7 608.91,455.7C609.89,455.7 611.25,455.62 612.31,455.32C614.27,454.72 614.58,452.53 614.65,445.96L615.33,401.27C615.33,399.76 615.56,398.7 616.31,398.7C617.14,398.7 617.82,399.68 619.1,401.04C620.01,402.02 631.48,414.33 642.5,425.27C647.63,430.4 657.83,441.27 659.11,442.48L659.49,442.48L658.73,408.58C658.65,403.97 657.98,402.54 656.16,401.78C655.03,401.33 653.22,401.33 652.16,401.33C651.25,401.33 650.95,401.1 650.95,400.65C650.95,400.05 651.78,399.97 652.91,399.97C656.84,399.97 660.46,400.2 662.04,400.2C662.87,400.2 665.74,399.97 669.44,399.97C670.42,399.97 671.18,400.05 671.18,400.65C671.18,401.1 670.73,401.33 669.82,401.33C669.06,401.33 668.46,401.33 667.55,401.56C665.44,402.16 664.83,403.75 664.76,407.98L663.93,455.62C663.93,457.28 663.63,457.96 662.95,457.96C662.12,457.96 661.21,457.13 660.38,456.3C655.62,451.77 645.96,441.88 638.11,434.1C629.88,425.95 621.5,416.51 620.14,415.07L619.91,415.07L620.74,446.78L620.76,446.79Z" style="fill:rgb(0,47,104);fill-rule:nonzero;"/>
        </g>
        <g transform="matrix(0.800341,0,0,0.560857,48.5317,174.238)">
            <path d="M688.03,421.88C688.03,410.41 688.03,408.29 687.88,405.88C687.73,403.31 687.13,402.11 684.63,401.58C684.03,401.43 682.74,401.35 681.69,401.35C680.86,401.35 680.41,401.2 680.41,400.67C680.41,400.14 680.94,399.99 682.07,399.99C686.07,399.99 690.83,400.22 692.41,400.22C694.98,400.22 700.71,399.99 703.05,399.99C707.81,399.99 712.87,400.44 716.94,403.24C719.05,404.67 722.07,408.52 722.07,413.58C722.07,419.17 719.73,424.3 712.1,430.49C718.82,438.95 724.03,445.67 728.48,450.35C732.71,454.73 735.8,455.26 736.94,455.48C737.77,455.63 738.45,455.71 739.05,455.71C739.65,455.71 739.96,455.94 739.96,456.31C739.96,456.91 739.43,457.06 738.53,457.06L731.36,457.06C727.13,457.06 725.24,456.68 723.28,455.63C720.03,453.89 717.16,450.35 712.94,444.53C709.92,440.38 706.45,435.24 705.47,434.11C705.09,433.66 704.64,433.58 704.11,433.58L697.54,433.43C697.16,433.43 696.94,433.58 696.94,434.03L696.94,435.09C696.94,442.11 696.94,448.08 697.32,451.25C697.55,453.44 698,455.1 700.26,455.4C701.39,455.55 703.05,455.7 703.96,455.7C704.56,455.7 704.87,455.93 704.87,456.3C704.87,456.83 704.34,457.05 703.36,457.05C698.98,457.05 693.39,456.82 692.26,456.82C690.83,456.82 686.07,457.05 683.05,457.05C682.07,457.05 681.54,456.82 681.54,456.3C681.54,455.92 681.84,455.7 682.75,455.7C683.88,455.7 684.79,455.55 685.47,455.4C686.98,455.1 687.36,453.44 687.66,451.25C688.04,448.08 688.04,442.12 688.04,435.17L688.04,421.88L688.03,421.88ZM696.94,427.84C696.94,428.67 697.09,428.97 697.62,429.2C699.21,429.73 701.47,429.96 703.36,429.96C706.38,429.96 707.36,429.66 708.72,428.68C710.99,427.02 713.17,423.55 713.17,417.35C713.17,406.63 706.07,403.53 701.62,403.53C699.73,403.53 698.37,403.61 697.62,403.83C697.09,403.98 696.94,404.28 696.94,404.89L696.94,427.84Z" style="fill:rgb(0,47,104);fill-rule:nonzero;"/>
        </g>
        <g transform="matrix(0.800341,0,0,0.560857,50.0267,174.281)">
            <path d="M751.98,437.51C751.98,433.43 751.22,431.77 750.24,429.58C749.71,428.37 739.59,411.76 736.95,407.84C735.06,405.05 733.17,403.16 731.74,402.33C730.76,401.8 729.47,401.35 728.57,401.35C727.97,401.35 727.44,401.2 727.44,400.67C727.44,400.22 727.97,399.99 728.87,399.99C730.23,399.99 735.89,400.22 738.38,400.22C739.97,400.22 743.06,399.99 746.46,399.99C747.22,399.99 747.59,400.22 747.59,400.67C747.59,401.12 747.06,401.2 745.93,401.5C745.25,401.65 744.87,402.26 744.87,402.86C744.87,403.46 745.25,404.37 745.78,405.43C746.84,407.7 757.41,425.89 758.61,428C759.37,426.19 768.88,409.58 769.93,407.24C770.68,405.58 770.99,404.3 770.99,403.31C770.99,402.55 770.69,401.72 769.4,401.42C768.72,401.27 768.04,401.12 768.04,400.66C768.04,400.13 768.42,399.98 769.32,399.98C771.81,399.98 774.23,400.21 776.42,400.21C778.08,400.21 783.06,399.98 784.5,399.98C785.33,399.98 785.86,400.13 785.86,400.58C785.86,401.11 785.26,401.34 784.43,401.34C783.68,401.34 782.24,401.64 781.11,402.25C779.52,403 778.69,403.91 777.03,405.95C774.54,408.97 763.97,426.71 762.61,429.96C761.48,432.68 761.48,435.02 761.48,437.51L761.48,443.7C761.48,444.91 761.48,448.08 761.71,451.25C761.86,453.44 762.54,455.1 764.81,455.4C765.87,455.55 767.53,455.7 768.58,455.7C769.41,455.7 769.79,455.93 769.79,456.3C769.79,456.83 769.19,457.05 768.2,457.05C763.44,457.05 758.69,456.82 756.65,456.82C754.76,456.82 750.01,457.05 747.21,457.05C746.15,457.05 745.55,456.9 745.55,456.3C745.55,455.92 745.93,455.7 746.76,455.7C747.82,455.7 748.72,455.55 749.4,455.4C750.91,455.1 751.59,453.44 751.74,451.25C751.97,448.08 751.97,444.91 751.97,443.7L751.97,437.51L751.98,437.51Z" style="fill:rgb(0,47,104);fill-rule:nonzero;"/>
        </g>
        <g transform="matrix(0.987792,0,0,0.921005,3.5576,30.3272)">
            <g transform="matrix(0.810232,0,0,0.608962,69.8469,155.169)">
                <path d="M414.15,480.46C415.91,480.46 417.41,480.81 418.64,481.52C419.88,482.23 420.81,483.19 421.43,484.4C422.05,485.61 422.37,486.97 422.37,488.48C422.37,489.99 422.06,491.35 421.43,492.57C420.81,493.8 419.87,494.76 418.64,495.47C417.4,496.18 415.9,496.53 414.15,496.53L406.62,496.53L406.62,504.75L404.57,504.75L404.57,480.46L414.15,480.46ZM414.08,494.58C416.11,494.58 417.66,494.02 418.71,492.9C419.76,491.78 420.29,490.32 420.29,488.51C420.29,486.7 419.76,485.24 418.71,484.1C417.66,482.97 416.11,482.4 414.08,482.4L406.62,482.4L406.62,494.58L414.08,494.58Z" style="fill-rule:nonzero;"/>
            </g>
            <g transform="matrix(0.810232,0,0,0.608962,69.8469,155.169)">
                <path d="M461.02,504.75L458.76,504.75L456.12,498.85L441.76,498.85L439.12,504.75L436.87,504.75L447.76,480.46L450.12,480.46L461.01,504.75L461.02,504.75ZM448.91,482.51C448.31,483.99 447.35,486.19 446.03,489.1L442.59,496.94L455.25,496.94L451.78,489.03C451.71,488.87 451.63,488.68 451.54,488.47C451.45,488.26 451.35,488.04 451.26,487.81C450.2,485.45 449.43,483.68 448.97,482.5L448.9,482.5L448.91,482.51Z" style="fill-rule:nonzero;"/>
            </g>
            <g transform="matrix(0.810232,0,0,0.608962,69.8469,155.169)">
                <path d="M495.26,504.75L486.97,495.66L481.56,495.66L481.56,504.75L479.48,504.75L479.48,480.46L489.06,480.46C490.66,480.46 492.06,480.77 493.28,481.4C494.5,482.03 495.43,482.91 496.09,484.05C496.75,485.19 497.08,486.52 497.08,488.02C497.08,490.2 496.4,491.98 495.05,493.36C493.7,494.74 491.89,495.51 489.62,495.65L497.95,504.74L495.28,504.74L495.26,504.75ZM493.37,483.97C492.29,482.95 490.83,482.44 488.98,482.44L481.56,482.44L481.56,493.72L489.02,493.72C490.85,493.72 492.3,493.21 493.37,492.19C494.45,491.17 494.98,489.81 494.98,488.1C494.98,486.39 494.44,484.99 493.37,483.97Z" style="fill-rule:nonzero;"/>
            </g>
            <g transform="matrix(0.810232,0,0,0.608962,69.8469,155.169)">
                <path d="M513.31,480.46L532.64,480.46L532.64,482.37L524,482.37L524,504.75L521.95,504.75L521.95,482.37L513.31,482.37L513.31,480.46Z" style="fill-rule:nonzero;"/>
            </g>
            <g transform="matrix(0.810232,0,0,0.608962,69.8469,155.169)">
                <path d="M550.78,504.75L550.78,480.46L552.9,480.46L566.4,499.02L568.17,501.48L568.24,501.44C568.19,500.75 568.17,500.09 568.17,499.46L568.17,480.45L570.22,480.45L570.22,504.74L568.17,504.74L554.6,486.18C553.65,484.88 553.07,484.06 552.87,483.72L552.8,483.76C552.82,484.11 552.83,484.77 552.83,485.74L552.83,504.75L550.78,504.75Z" style="fill-rule:nonzero;"/>
            </g>
            <g transform="matrix(0.810232,0,0,0.608962,69.8469,155.169)">
                <path d="M593.49,493.43L593.49,502.77L607.68,502.77L607.68,504.75L591.44,504.75L591.44,480.46L607.3,480.46L607.3,482.4L593.49,482.4L593.49,491.49L606.61,491.49L606.61,493.43L593.49,493.43Z" style="fill-rule:nonzero;"/>
            </g>
            <g transform="matrix(0.810232,0,0,0.608962,69.8469,155.169)">
                <path d="M643.24,504.75L634.95,495.66L629.54,495.66L629.54,504.75L627.46,504.75L627.46,480.46L637.04,480.46C638.64,480.46 640.04,480.77 641.26,481.4C642.48,482.03 643.41,482.91 644.07,484.05C644.73,485.19 645.06,486.52 645.06,488.02C645.06,490.2 644.38,491.98 643.03,493.36C641.68,494.74 639.87,495.51 637.6,495.65L645.93,504.74L643.26,504.74L643.24,504.75ZM641.35,483.97C640.27,482.95 638.81,482.44 636.96,482.44L629.54,482.44L629.54,493.72L637,493.72C638.83,493.72 640.28,493.21 641.35,492.19C642.43,491.17 642.96,489.81 642.96,488.1C642.96,486.39 642.42,484.99 641.35,483.97Z" style="fill-rule:nonzero;"/>
            </g>
            <g transform="matrix(0.810232,0,0,0.608962,69.8469,155.169)">
                <path d="M663.02,502.18L664.06,500.55C666.63,502.33 669.28,503.22 672.01,503.22C674.02,503.22 675.64,502.79 676.87,501.92C678.1,501.05 678.71,499.86 678.71,498.33C678.71,497.38 678.51,496.59 678.12,495.97C677.73,495.35 677.04,494.81 676.06,494.36C675.08,493.91 673.68,493.5 671.88,493.13C669.89,492.74 668.31,492.26 667.14,491.69C665.97,491.12 665.12,490.42 664.57,489.59C664.02,488.76 663.76,487.74 663.76,486.54C663.76,485.25 664.12,484.1 664.85,483.11C665.58,482.12 666.58,481.35 667.85,480.82C669.12,480.29 670.56,480.02 672.15,480.02C674.95,480.02 677.45,480.76 679.64,482.24L678.53,483.8C676.68,482.57 674.55,481.96 672.15,481.96C670.3,481.96 668.78,482.37 667.59,483.19C666.4,484.01 665.8,485.11 665.8,486.5C665.8,487.36 666.01,488.07 666.44,488.64C666.87,489.21 667.56,489.7 668.5,490.11C669.45,490.53 670.77,490.91 672.46,491.25C674.56,491.69 676.22,492.22 677.42,492.83C678.62,493.44 679.48,494.18 680.01,495.05C680.54,495.92 680.79,497 680.79,498.29C680.79,500.42 679.98,502.1 678.36,503.32C676.74,504.55 674.61,505.16 671.98,505.16C668.69,505.16 665.71,504.17 663.03,502.17L663.02,502.18Z" style="fill-rule:nonzero;"/>
            </g>
            <g transform="matrix(0.810232,0,0,0.608962,54.0052,156.005)">
                <path d="M724.95,480.46L724.95,502.8L738.59,502.8L738.59,504.74L722.91,504.74L722.91,480.45L724.96,480.45L724.95,480.46Z" style="fill-rule:nonzero;"/>
            </g>
            <g transform="matrix(0.810232,0,0,0.608962,43.6349,154.195)">
                <path d="M766.38,480.46C768.14,480.46 769.64,480.81 770.87,481.52C772.11,482.23 773.04,483.19 773.66,484.4C774.28,485.61 774.6,486.97 774.6,488.48C774.6,489.99 774.29,491.35 773.66,492.57C773.04,493.8 772.1,494.76 770.87,495.47C769.63,496.18 768.13,496.53 766.38,496.53L758.85,496.53L758.85,504.75L756.8,504.75L756.8,480.46L766.38,480.46ZM766.31,494.58C768.34,494.58 769.89,494.02 770.94,492.9C771.99,491.78 772.52,490.32 772.52,488.51C772.52,486.7 771.99,485.24 770.94,484.1C769.89,482.97 768.34,482.4 766.31,482.4L758.85,482.4L758.85,494.58L766.31,494.58Z" style="fill-rule:nonzero;"/>
            </g>
        </g>
        <g transform="matrix(0.856815,0,0,0.755247,66.9991,88.9996)">
            <path d="M207.02,270.72L281.22,205.9L281.22,407.04L207.02,469.42L207.02,270.72Z" style="fill:rgb(0,113,188);fill-rule:nonzero;"/>
        </g>
        <g transform="matrix(0.85923,0,0,0.740712,67.2912,90.4156)">
            <path d="M363.79,314.91L289.59,250.09L289.59,451.23L363.79,513.61L363.79,314.91Z" style="fill:rgb(0,47,104);fill-rule:nonzero;"/>
        </g>
        <g transform="matrix(0.987792,0,0,0.921005,3.5576,30.3272)">
            <g transform="matrix(1,0,0,1,30.4748,-16.9819)">
                <path d="M217.7,397.71C217.9,398.17 218.2,398.82 218.63,399.57C221.12,403.91 226.59,409.2 234.41,409.78C235.5,409.86 242.75,410.28 248.7,404.95C251.61,402.35 253.03,399.42 253.71,397.71C249.6,399.2 244.24,400.12 235.7,400.68C228.5,401.15 221.55,399.11 217.69,397.71L217.7,397.71Z" style="fill:white;fill-rule:nonzero;"/>
            </g>
            <g transform="matrix(1,0,0,1,30.1822,-16.8781)">
                <path d="M323.51,362.82C323.51,364.51 324.7,365.92 326.29,366.27L326.29,367.18L313.63,396.11L314.99,396.71L326.29,370.89L326.29,397.54L327.77,397.54L327.77,370.99L339.02,396.7L340.38,396.1L327.77,367.28L327.77,366.27C329.36,365.93 330.56,364.52 330.56,362.82C330.56,361.89 330.2,361.06 329.61,360.43L338.37,360.27L338.33,357.94L308.25,358.49C304.61,354.93 295.45,347.55 281.9,347.55L281.82,347.55C268.59,347.58 259.53,354.7 255.94,358.12L224.95,357.75L224.92,360.08L233.39,360.18C232.66,360.83 232.19,361.76 232.19,362.82C232.19,364.51 233.38,365.92 234.97,366.27L234.97,367.18L222.31,396.11L223.67,396.71L234.97,370.89L234.97,397.54L236.46,397.54L236.46,370.99L247.71,396.7L249.07,396.1L236.46,367.28L236.46,366.27C238.05,365.93 239.25,364.52 239.25,362.82C239.25,361.8 238.81,360.88 238.11,360.24L256.88,360.46L257.23,360.12C260.36,357.05 269.01,349.9 281.84,349.87L281.92,349.87C295.05,349.87 303.81,357.28 306.97,360.48L307.32,360.83L324.39,360.52C323.86,361.14 323.52,361.93 323.52,362.81L323.51,362.82Z" style="fill:white;fill-rule:nonzero;"/>
            </g>
            <g transform="matrix(1,0,0,1,29.5957,-16.3338)">
                <path d="M327.02,400.68C319.82,401.15 312.87,399.11 309.01,397.71C309.21,398.17 309.51,398.82 309.94,399.57C312.43,403.91 317.9,409.2 325.72,409.78C326.81,409.86 334.06,410.28 340.01,404.95C342.92,402.35 344.34,399.42 345.02,397.71C340.91,399.2 335.55,400.12 327.01,400.68L327.02,400.68Z" style="fill:white;fill-rule:nonzero;"/>
            </g>
        </g>
    </g>
</svg>
